<svg width="50" height="51" viewBox="0 0 50 51" fill="none" xmlns="http://www.w3.org/2000/svg">
<g clip-path="url(#clip0_264_76)">
<g clip-path="url(#clip1_264_76)">
<path fill-rule="evenodd" clip-rule="evenodd" d="M24.6471 0.62514C24.5337 0.670997 24.3447 0.830863 24.2272 0.980266C24.0187 1.24554 24.0144 1.30929 24.0427 3.67529L24.0718 6.09849L24.3405 6.3672C24.7156 6.74227 25.2846 6.74227 25.6595 6.3671L25.9282 6.09819V3.59903V1.09994L25.6091 0.814632C25.286 0.525701 25.0218 0.473683 24.6471 0.62514ZM35.601 4.68043C35.4398 4.75191 34.3737 5.75247 33.2316 6.90388C31.2648 8.8871 31.1554 9.01684 31.1554 9.36641C31.1554 9.90437 31.5785 10.307 32.144 10.307C32.5565 10.307 32.5857 10.283 34.6016 8.27816C35.7237 7.1623 36.7043 6.13046 36.7809 5.98526C36.9905 5.58743 36.9497 5.25714 36.6513 4.94023C36.323 4.59145 35.9885 4.50875 35.601 4.68043ZM13.5753 5.00263C13.2927 5.26513 13.2413 5.41368 13.2642 5.90148C13.2784 6.20204 16.9732 9.96549 17.4608 10.176C18.1116 10.457 18.7469 10.0055 18.7469 9.26187C18.7469 8.91368 18.6374 8.78474 16.6682 6.81405C14.7091 4.85342 14.5686 4.73372 14.2271 4.73372C13.9671 4.73372 13.783 4.8097 13.5753 5.00263ZM24.3644 8.39194C24.0564 8.70026 23.9715 9.06651 24.1231 9.4328C24.2841 9.82184 24.5737 10.0137 25 10.0137C25.4263 10.0137 25.7159 9.82184 25.8769 9.4328C26.1339 8.81201 25.6834 8.15592 25 8.15592C24.7078 8.15592 24.5369 8.21937 24.3644 8.39194ZM24.1314 12.1828C21.2419 12.4262 18.5457 14.3252 17.2511 17.0287C17.0666 17.4137 16.8907 17.8246 16.8602 17.9416C16.8077 18.1423 16.7751 18.1288 16.2917 17.7057C15.1709 16.7244 13.9823 16.2718 12.3377 16.2C10.7801 16.132 10.0418 16.2654 8.88974 16.8228C7.20951 17.6359 5.9852 19.1982 5.60559 21.0136C5.39865 22.0037 5.40043 26.8297 5.60816 27.8272C5.90332 29.2447 6.77513 30.6262 7.88533 31.4356L8.47694 31.8668L8.4824 32.4321C8.48612 32.8032 8.44595 33.0103 8.36586 33.0352C8.29872 33.0559 7.40836 33.273 6.38734 33.5176C3.93095 34.1061 3.20403 34.4574 2.03295 35.6215C1.32078 36.3294 1.1157 36.6093 0.736118 37.3913C0.0890227 38.7241 -0.031349 39.4547 0.00616945 41.8238L0.0365556 43.7429L0.307392 44.0136L0.578227 44.2847L4.74013 44.312L8.90194 44.3396L8.84158 44.6419C8.80826 44.8084 8.78109 45.7732 8.78109 46.786V48.6278L5.65661 48.6561L2.53222 48.6843L2.26363 48.9534C1.88883 49.3287 1.88883 49.8982 2.26372 50.2735L2.53241 50.5422H25H47.4674L47.7362 50.2735C48.1112 49.8982 48.1112 49.3287 47.7365 48.9534L47.4678 48.6843L44.3434 48.6561L41.2188 48.6278V46.786C41.2188 45.7732 41.1918 44.8084 41.1586 44.6419L41.098 44.3396L45.2599 44.312L49.4217 44.2847L49.6928 44.0136L49.9635 43.7429L49.9938 41.8238C50.0312 39.4547 49.9109 38.7241 49.2638 37.3913C48.8842 36.6093 48.6793 36.3294 47.9671 35.6215C46.7961 34.4574 46.0691 34.1061 43.6128 33.5176C42.5918 33.273 41.7013 33.0559 41.6342 33.0352C41.5539 33.0103 41.5138 32.8032 41.5174 32.4321L41.523 31.8668L42.1148 31.4356C43.2089 30.6379 44.1076 29.2146 44.3934 27.8272C44.5997 26.8267 44.6003 21.9981 44.3944 21.0136C44.0148 19.1982 42.7905 17.6359 41.1102 16.8228C39.9582 16.2654 39.2197 16.132 37.6622 16.2C36.0178 16.2718 34.8293 16.7244 33.7082 17.7057C33.225 18.1288 33.1924 18.1423 33.1398 17.9416C33.1092 17.8246 32.9336 17.4137 32.7489 17.0287C31.8328 15.1155 30.089 13.4798 28.177 12.7399C26.8302 12.2187 25.6437 12.0554 24.1314 12.1828ZM26.5484 14.2814C28.3469 14.6566 30.0416 16.0043 30.8979 17.7402C31.3706 18.6985 31.6393 19.6946 31.6422 20.5003L31.6439 20.9647H31.222C30.6589 20.9647 29.9092 20.7332 29.5045 20.4344C29.3232 20.3006 29.0051 19.9648 28.7975 19.6883L28.4199 19.1855L28.8204 18.7307C29.0407 18.4805 29.2852 18.1517 29.3639 17.9998C29.7192 17.3136 29.0384 16.5105 28.266 16.7045C28.1277 16.7392 27.5986 17.1859 27.0902 17.6972C24.9395 19.86 22.3263 20.9642 19.3576 20.9646L18.3561 20.9647L18.3578 20.5003C18.3607 19.6962 18.629 18.6992 19.0985 17.7475C20.0923 15.7326 22.0389 14.3723 24.2672 14.1355C25.083 14.0488 25.5876 14.0811 26.5484 14.2814ZM13.2794 18.2686C14.3652 18.5524 15.3979 19.3586 15.87 20.2909C16.1534 20.8505 16.402 21.7505 16.402 22.2166V22.5475L15.8891 22.4849C14.6299 22.3314 14.1705 22.1904 12.9605 21.586C12.4916 21.3519 12.0178 21.1603 11.9076 21.1603C11.7974 21.1603 11.3237 21.3519 10.8548 21.586C9.6448 22.1904 9.18539 22.3314 7.92618 22.4849L7.41322 22.5475V22.2166C7.41322 21.7505 7.66187 20.8505 7.94523 20.2909C8.40727 19.3784 9.44079 18.5598 10.4909 18.2747C11.1405 18.0984 12.6156 18.0951 13.2794 18.2686ZM39.4641 18.2686C40.55 18.5524 41.5826 19.3586 42.0549 20.2909C42.3382 20.8505 42.5868 21.7505 42.5868 22.2166V22.5475L42.0737 22.4849C40.8145 22.3314 40.3553 22.1904 39.1454 21.586C38.6763 21.3519 38.2026 21.1603 38.0924 21.1603C37.9822 21.1603 37.5086 21.3519 37.0395 21.586C35.8296 22.1904 35.3701 22.3314 34.1109 22.4849L33.598 22.5475V22.2166C33.598 21.7505 33.8467 20.8505 34.1299 20.2909C34.5921 19.3784 35.6257 18.5598 36.6757 18.2747C37.3253 18.0984 38.8003 18.0951 39.4641 18.2686ZM27.8323 21.5514C28.7209 22.4388 29.8663 22.9202 31.0891 22.9202H31.6657L31.6176 24.998C31.5638 27.3202 31.4919 27.6735 30.8049 28.9905C30.5471 29.4847 30.1917 29.9494 29.6893 30.4491C28.859 31.2749 28.1803 31.7114 27.1334 32.0929C26.4801 32.3309 26.2913 32.354 25 32.354C23.7087 32.354 23.5199 32.3309 22.8666 32.0929C20.8232 31.3483 19.3037 29.7646 18.6237 27.6706C18.4647 27.181 18.4221 26.7107 18.3827 25.0116L18.3347 22.9475L19.7866 22.8949C21.3078 22.8399 22.1741 22.6933 23.4209 22.2801C24.3252 21.9804 25.7488 21.289 26.4167 20.8254L26.9052 20.4862L27.0996 20.7499C27.2064 20.8949 27.5362 21.2556 27.8323 21.5514ZM12.4727 23.5443C13.3851 24.0058 15.3228 24.4847 16.2774 24.4847C16.4341 24.4847 16.452 26.5405 16.3023 27.3309C16.0013 28.9188 14.8167 30.2012 13.2794 30.603C12.5861 30.7841 11.2547 30.7811 10.5435 30.5967C8.98911 30.1936 7.81586 28.9293 7.51299 27.3309C7.36319 26.5405 7.38118 24.4847 7.53789 24.4847C8.48562 24.4847 10.6265 23.9462 11.4191 23.5084C11.8609 23.2644 11.9233 23.2666 12.4727 23.5443ZM38.6572 23.5443C39.5697 24.0058 41.5076 24.4847 42.4622 24.4847C42.6188 24.4847 42.6368 26.5405 42.4872 27.3309C42.1868 28.9151 40.9987 30.1968 39.4609 30.5955C38.7457 30.781 37.4155 30.7845 36.7207 30.603C35.2401 30.2161 34.1464 29.0927 33.7438 27.5458C33.5533 26.8148 33.5375 24.4847 33.7227 24.4847C34.6704 24.4847 36.8112 23.9462 37.6039 23.5084C38.0457 23.2644 38.1079 23.2666 38.6572 23.5443ZM18.767 31.6772C19.1002 32.0336 19.6496 32.5229 19.9881 32.7646L20.6033 33.204V33.8797C20.6033 34.2514 20.5863 34.5557 20.5654 34.5557C20.5446 34.5557 20.2361 34.4192 19.8798 34.2524C19.5236 34.0857 18.5184 33.7751 17.6461 33.5623C16.7738 33.3497 15.8952 33.1325 15.6937 33.0797L15.3273 32.9837V32.4008C15.3273 32.0803 15.3626 31.818 15.4059 31.818C15.5835 31.818 16.8001 30.7183 17.0914 30.2945L17.4049 29.8386L17.7831 30.4339C17.9911 30.7614 18.4339 31.3209 18.767 31.6772ZM33.273 30.7396C33.4434 30.9332 33.826 31.266 34.123 31.4792L34.6635 31.8668L34.6681 32.4252L34.6727 32.9837L34.3063 33.0797C34.1049 33.1325 33.2263 33.3497 32.3539 33.5623C31.4816 33.7751 30.4764 34.0857 30.1202 34.2524C29.764 34.4192 29.4554 34.5557 29.4346 34.5557C29.4137 34.5557 29.3967 34.2514 29.3967 33.8797V33.204L30.0183 32.7601C30.7762 32.2188 31.794 31.1357 32.2409 30.3945L32.5721 29.8453L32.7675 30.1163C32.875 30.2655 33.1023 30.5459 33.273 30.7396ZM13.3732 33.1748C13.3732 33.957 12.2201 38.3679 11.96 38.5807C11.8506 38.6702 11.7526 38.735 11.7422 38.7245C11.7318 38.7146 11.435 37.5824 11.0827 36.209C10.6782 34.6327 10.4421 33.5162 10.4421 33.1806V32.649H11.9076H13.3732V33.1748ZM39.5579 33.1806C39.5579 33.5162 39.3217 34.6327 38.9174 36.209C38.5651 37.5824 38.2674 38.7153 38.2563 38.7264C38.2451 38.7376 38.1447 38.6728 38.0332 38.5824C37.7711 38.3695 36.627 33.9702 36.627 33.1748V32.649H38.0924H39.5579V33.1806ZM23.2902 34.2116C23.6274 34.2929 24.3538 34.3531 25 34.3531C25.6462 34.3531 26.3727 34.2929 26.7098 34.2116C27.0322 34.1337 27.329 34.0692 27.3693 34.0682C27.4097 34.0676 27.4427 34.5396 27.4428 35.1179C27.4429 36.1429 27.4133 36.2843 26.2465 40.838C25.5885 43.4057 25.0279 45.5064 25.0006 45.5057C24.9734 45.5054 24.4111 43.3824 23.7509 40.788C22.594 36.2419 22.5507 36.035 22.554 35.0689C22.5558 34.5179 22.5904 34.0676 22.6307 34.0682C22.6709 34.0692 22.9678 34.1337 23.2902 34.2116ZM9.44566 37.709C9.83365 39.2284 10.1507 40.5116 10.15 40.5607C10.1494 40.61 9.96214 41.0383 9.73372 41.5123L9.31845 42.3745L5.61819 42.3761L1.91805 42.3778L1.96387 40.8866C2.00403 39.5788 2.04096 39.3143 2.2648 38.7347C2.72899 37.5324 3.50145 36.6669 4.61184 36.1047C5.03109 35.8922 7.8951 35.0847 8.6873 34.9554C8.71641 34.9508 9.0576 36.1896 9.44566 37.709ZM16.8706 35.386C18.2154 35.7034 18.8836 35.8942 18.7469 35.9222C18.6033 35.9514 14.9498 36.9005 14.7543 36.9593C14.5589 37.0182 14.532 37.0001 14.5792 36.8432C14.6099 36.7412 14.7306 36.2718 14.8473 35.7998C15.018 35.1097 15.0904 34.9508 15.2178 34.9876C15.3049 35.013 16.0486 35.1922 16.8706 35.386ZM35.1921 35.9468C35.3299 36.4965 35.4293 36.96 35.4125 36.9768C35.3961 36.9932 35.0141 36.9005 34.5635 36.7709C34.1132 36.6409 33.2168 36.4143 32.5721 36.2669C31.9272 36.1195 31.3643 35.9666 31.321 35.9271C31.2778 35.8876 31.4317 35.8041 31.663 35.7416C32.1198 35.6185 34.7809 34.9676 34.8806 34.9547C34.9141 34.9505 35.0543 35.3968 35.1921 35.9468ZM43.1924 35.4264C44.9734 35.8547 45.6984 36.1643 46.4243 36.8047C47.027 37.337 47.4174 37.912 47.7352 38.7347C47.9589 39.3143 47.9961 39.5788 48.0362 40.8866L48.0819 42.3778L44.3819 42.3761L40.6816 42.3745L40.2664 41.5123C40.0378 41.0383 39.85 40.61 39.8487 40.5607C39.8477 40.5116 40.1648 39.2284 40.5539 37.709C41.1263 35.4738 41.2898 34.9554 41.4112 34.9906C41.4934 35.0146 42.2951 35.2107 43.1924 35.4264ZM20.984 37.8557C21.0364 38.0574 21.524 39.9603 22.0675 42.0847C22.6109 44.2087 23.0797 46.0347 23.109 46.1422C23.1385 46.2498 21.4665 44.6449 19.3936 42.5761C17.3207 40.507 15.6577 38.7814 15.698 38.7412C15.7747 38.6643 20.4321 37.511 20.7216 37.4972C20.8357 37.4916 20.9192 37.6057 20.984 37.8557ZM31.7628 38.0807C33.1214 38.4061 34.2651 38.7044 34.3039 38.7436C34.3434 38.7824 32.6844 40.5061 30.618 42.5735L26.8607 46.3327L27.6936 43.0597C28.9596 38.0853 29.1219 37.4889 29.2106 37.4889C29.2556 37.4889 30.4041 37.7554 31.7628 38.0807ZM18.1607 44.1866L22.6055 48.6357H16.6703H10.7352V46.7863C10.7352 44.2278 10.9614 43.1755 11.8241 41.7225C12.1271 41.2123 13.479 39.738 13.6438 39.738C13.6835 39.738 15.7162 41.7399 18.1607 44.1866ZM37.1382 40.4541C37.8964 41.2192 38.3579 41.913 38.7431 42.8679C39.1441 43.861 39.2648 44.7682 39.2648 46.7863V48.6357H33.3296H27.3945L31.8393 44.1866C34.2839 41.7399 36.3164 39.738 36.3563 39.738C36.3957 39.738 36.7477 40.06 37.1382 40.4541Z" fill="#297899"/>
</g>
</g>
<defs>
<clipPath id="clip0_264_76">
<rect width="50" height="50" fill="white" transform="translate(0 0.542236)"/>
</clipPath>
<clipPath id="clip1_264_76">
<rect width="50" height="50" fill="white" transform="translate(0 0.542236)"/>
</clipPath>
</defs>
</svg>
