<svg width="50" height="51" viewBox="0 0 50 51" fill="none" xmlns="http://www.w3.org/2000/svg">
<g clip-path="url(#clip0_266_108)">
<g clip-path="url(#clip1_266_108)">
<path fill-rule="evenodd" clip-rule="evenodd" d="M0.783442 0.625057C0.670694 0.670868 0.484918 0.827937 0.370713 0.973968L0.163086 1.23946V25.5468V49.8543L0.446461 50.1733L0.729838 50.4922L24.9653 50.5171L49.2007 50.5422L49.5186 50.2566L49.8363 49.971V33.3494V16.7281L49.5157 16.4401L49.1954 16.152L44.9677 16.1795L40.7402 16.2068L40.4569 16.5259L40.1735 16.8449V32.7162V48.5873H39.0582H37.9428L37.917 38.5184L37.8915 28.4496L37.5709 28.1615L37.2503 27.8735L33.0229 27.901L28.7952 27.9283L28.512 28.2474L28.2287 28.5664V38.5769V48.5873H27.1129H25.997L25.9718 34.6112L25.9466 20.6352L25.6261 20.3472L25.3056 20.0592L21.078 20.0866L16.8504 20.114L16.5671 20.433L16.2838 20.752V34.6697V48.5873H15.1689H14.0539L14.0278 41.4488L14.0016 34.3102L13.6812 34.0223L13.3607 33.7344L9.14332 33.7618L4.9259 33.789L4.65668 34.0599L4.3875 34.3308L4.36135 41.4589L4.33524 48.5873H3.22088H2.10651L2.08165 24.8434L2.05679 1.09939L1.73962 0.814359C1.41846 0.525717 1.15587 0.473752 0.783442 0.625057ZM43.4997 0.674092C42.7405 0.888985 42.2389 1.17753 41.7226 1.69679C40.6046 2.82166 40.266 4.58086 40.9 5.97358C41.0467 6.29632 41.1128 6.55858 41.0634 6.62335C40.8209 6.94178 34.9912 14.648 34.9768 14.6696C34.9673 14.6836 34.7572 14.6052 34.5101 14.4952C33.4124 14.0069 31.6569 14.2294 30.8283 14.9619C30.6176 15.1482 30.9225 15.3959 27.5642 12.3103L24.8118 9.78132L24.8936 9.33109C25.2722 7.24789 24.3398 5.4338 22.5235 4.71936C21.7434 4.41256 20.5355 4.41256 19.7554 4.71936C18.2001 5.33103 17.3013 6.69727 17.3066 8.44135C17.3087 9.13341 17.3525 9.36586 17.5701 9.83786L17.831 10.4041L14.6152 14.3311C12.8466 16.491 11.327 18.3364 11.2383 18.4319C11.0842 18.5982 11.0565 18.5962 10.5972 18.386C9.9208 18.0763 8.60626 18.0801 7.81054 18.3939C5.49662 19.3064 4.62766 22.1174 6.01044 24.2172C6.70354 25.2697 7.85113 25.8627 9.19459 25.8627C11.4432 25.8627 13.0344 24.2264 13.0274 21.9211C13.0253 21.229 12.9815 20.9966 12.764 20.5246L12.503 19.9583L15.7188 16.0313C17.4874 13.8714 19.007 12.0261 19.0957 11.9305C19.2499 11.7641 19.2761 11.7653 19.71 11.9584C20.8112 12.4483 22.5657 12.227 23.3955 11.4933C23.6062 11.307 23.3013 11.0593 26.6596 14.1449L29.412 16.6739L29.3301 17.1241C28.9516 19.2073 29.884 21.0215 31.7003 21.7359C32.4804 22.0427 33.6883 22.0427 34.4683 21.7359C36.0235 21.1242 36.9226 19.758 36.9173 18.0139C36.915 17.3186 36.8716 17.09 36.6497 16.6085C36.4912 16.2643 36.418 15.9897 36.4673 15.9248C36.7101 15.6063 42.5396 7.90011 42.5539 7.87851C42.5637 7.86446 42.7856 7.95099 43.0477 8.07093C43.7203 8.37884 45.0369 8.37433 45.8307 8.06139C48.1445 7.14884 49.0134 4.33786 47.6307 2.23803C46.7873 0.957164 44.953 0.262765 43.4997 0.674092ZM45.4771 2.79431C45.6598 2.91856 45.9288 3.19226 46.0749 3.40256C46.2994 3.72617 46.3402 3.88492 46.3402 4.43648C46.3402 4.98809 46.2994 5.14681 46.0749 5.47044C45.6324 6.1074 45.1971 6.34126 44.4536 6.34126C43.9507 6.34126 43.7366 6.29211 43.4445 6.10946C42.715 5.65309 42.3641 4.73714 42.5922 3.88443C42.7203 3.40676 43.3579 2.72154 43.8026 2.58352C44.2824 2.43466 45.0997 2.53752 45.4771 2.79431ZM22.1702 6.70148C22.3528 6.82573 22.6217 7.09943 22.7677 7.30972C22.9919 7.63266 23.0331 7.79198 23.0323 8.33537C23.0312 9.08181 22.7815 9.54658 22.144 9.98809C21.6277 10.3456 20.6851 10.3591 20.1375 10.0166C19.4078 9.56024 19.057 8.64433 19.2852 7.79158C19.4131 7.31394 20.0506 6.62871 20.4956 6.4907C20.9753 6.34181 21.7927 6.44469 22.1702 6.70148ZM34.151 16.4874C34.7324 16.8743 34.9781 17.3591 34.9781 18.1199C34.9781 18.6624 34.9366 18.8231 34.7124 19.1455C34.269 19.7846 33.8356 20.0163 33.0843 20.0163C32.3331 20.0163 31.8999 19.7846 31.4561 19.1455C31.2319 18.8226 31.1907 18.6633 31.1915 18.1199C31.1923 17.5848 31.2356 17.4136 31.4494 17.1012C31.7124 16.7171 32.2102 16.3212 32.5526 16.2239C32.9634 16.1073 33.783 16.2423 34.151 16.4874ZM47.9425 33.3494V48.5873H45.0291H42.1157V33.3494V18.1116H45.0291H47.9425V33.3494ZM10.2614 20.3945C10.8428 20.7815 11.0883 21.2662 11.0883 22.027C11.0883 22.5696 11.0467 22.7302 10.8228 23.0527C10.3791 23.6918 9.94583 23.9235 9.19459 23.9235C8.66648 23.9235 8.4839 23.879 8.19054 23.6793C7.44433 23.1713 7.11413 22.3117 7.34031 21.4667C7.46822 20.989 8.10573 20.3038 8.55073 20.1658C9.04462 20.0125 9.84913 20.12 10.2614 20.3945ZM24.0528 35.303V48.5873H21.1395H18.2261V35.303V22.0187H21.1395H24.0528V35.303ZM44.6784 26.0217C44.5657 26.0675 44.3798 26.2245 44.2657 26.3705C44.0611 26.6323 44.0582 26.6938 44.0582 30.8215V35.0069L44.3252 35.305C44.4928 35.4922 44.7226 35.6239 44.9431 35.6589C45.2392 35.7063 45.3451 35.669 45.6229 35.4194L45.9517 35.1239V30.8099V26.496L45.6347 26.2109C45.3134 25.9223 45.051 25.8703 44.6784 26.0217ZM35.9977 39.2102V48.5873H33.0843H30.171V39.2102V29.8331H33.0843H35.9977V39.2102ZM12.108 42.1406V48.5873H9.19459H6.28119V42.1406V35.6939H9.19459H12.108V42.1406ZM44.6784 37.7432C44.3726 37.8674 44.0582 38.32 44.0582 38.6357C44.0582 39.0269 44.5043 39.4962 44.9431 39.5661C45.2389 39.6135 45.3451 39.5762 45.6206 39.3285C45.8935 39.0834 45.9474 38.9671 45.9474 38.6243C45.9474 38.2844 45.8932 38.1648 45.6324 37.9305C45.3134 37.6435 45.0503 37.5919 44.6784 37.7432Z" fill="#297899"/>
</g>
</g>
<defs>
<clipPath id="clip0_266_108">
<rect width="50" height="50" fill="white" transform="translate(0 0.542236)"/>
</clipPath>
<clipPath id="clip1_266_108">
<rect width="49.6732" height="50" fill="white" transform="translate(0.163086 0.542236)"/>
</clipPath>
</defs>
</svg>
