<svg width="50" height="51" viewBox="0 0 50 51" fill="none" xmlns="http://www.w3.org/2000/svg">
<g clip-path="url(#clip0_266_111)">
<path fill-rule="evenodd" clip-rule="evenodd" d="M3.7 1.79363C2.03943 2.18561 0.561237 3.83578 0.160958 5.74439C-0.0520677 6.76064 -0.0544108 34.8278 0.158517 35.8341C0.578026 37.8166 2.06638 39.437 3.80201 39.8005C4.44638 39.9357 10.4416 39.9485 10.7907 39.8156C11.3848 39.5893 11.5595 38.717 11.1022 38.2587L10.8468 38.0028L7.45625 37.9538C4.19457 37.9068 4.05039 37.8969 3.6627 37.6893C3.11588 37.3962 2.50815 36.6811 2.2384 36.0133L2.01551 35.4614V26.077V16.6927L23.2253 16.6681L44.4352 16.6433V21.629V26.6146L44.0691 26.6168C43.6293 26.6193 42.9214 26.9243 42.5664 27.264L42.3086 27.5107L41.6388 27.2202C41.2707 27.0604 40.8743 26.901 40.7582 26.866C40.5908 26.8155 40.5332 26.6979 40.4783 26.2931C40.3622 25.4337 39.9437 24.8173 39.226 24.4477C38.751 24.2032 37.0454 24.0963 36.1905 24.2574C35.1211 24.459 34.4201 25.2026 34.3122 26.25L34.2582 26.7743L33.3898 27.1418L32.5215 27.5092L32.2184 27.2539C31.6992 26.8165 31.3392 26.6785 30.7184 26.6788C30.3134 26.679 30.0121 26.7424 29.742 26.8841C29.2163 27.16 27.5905 28.822 27.403 29.2752C27.0952 30.0187 27.3115 31.0939 27.8909 31.7011L28.1273 31.9487L27.7505 32.8252L27.3738 33.7017L26.8494 33.7542C26.2505 33.8142 25.8514 34.0031 25.4819 34.4017C24.9632 34.961 24.8741 35.2696 24.8302 36.6587L24.7891 37.9538H21.7665H18.7438L18.4584 38.2397C17.9795 38.7193 18.1115 39.4841 18.728 39.7999C18.8754 39.8752 20.2483 39.9091 23.1716 39.9091H27.4021L27.7745 40.7913L28.147 41.6735L27.8582 42.0028C27.2389 42.7091 27.0966 43.7245 27.505 44.5225C27.7604 45.0216 29.312 46.5258 29.8 46.7476C30.4064 47.0229 31.0991 47.0058 31.7111 46.7005C31.9829 46.565 32.2783 46.3732 32.3675 46.2745C32.5242 46.1012 32.5598 46.1071 33.3951 46.4479L34.2605 46.8005L34.3655 47.4331C34.5013 48.2531 34.8546 48.7597 35.5395 49.1179C36.0329 49.3762 36.1309 49.391 37.3326 49.391C38.0316 49.391 38.7711 49.3406 38.9757 49.2795C39.8013 49.0318 40.4036 48.242 40.5033 47.2768C40.5329 46.988 40.6059 46.7512 40.6658 46.7505C40.7253 46.7499 41.124 46.5962 41.5516 46.4094L42.3293 46.0696L42.6257 46.3568C43.2464 46.9584 44.2941 47.1275 45.0697 46.7515C45.5793 46.5048 47.2161 44.8429 47.4118 44.3739C47.7289 43.6143 47.5388 42.5959 46.9697 42.0071L46.6829 41.7104L47.0224 40.9318C47.2089 40.5038 47.3622 40.0985 47.3628 40.0311C47.3635 39.9561 47.5007 39.9091 47.7188 39.9091C48.3454 39.9091 48.8556 39.6916 49.3194 39.2275C49.8974 38.6485 50 38.2686 50 36.7074C50 35.5041 49.9852 35.4061 49.7273 34.912C49.3543 34.1969 48.8286 33.8377 48.0428 33.7606L47.4405 33.7017L47.2168 33.1046C47.0938 32.7762 46.9237 32.3738 46.8395 32.2102C46.7 31.9402 46.7 31.9013 46.8388 31.7857C46.923 31.7157 47.1191 31.4363 47.2747 31.1649C47.7914 30.2631 47.6329 29.2802 46.8273 28.3872L46.4941 28.0179L46.4648 17.0278L46.4352 6.03765L46.1684 5.24801C45.7178 3.91388 44.7599 2.69139 43.7688 2.18503C42.7457 1.66254 43.7747 1.68688 23.156 1.69744C12.4954 1.70301 3.90424 1.74543 3.7 1.79363ZM42.5148 3.79883C43.1082 4.00127 43.7421 4.62435 44.1016 5.35827L44.3865 5.93992L44.4145 10.3143L44.4428 14.6888H23.1991H1.95547L1.98662 10.4121C2.01698 6.22837 2.02254 6.12337 2.23957 5.58341C2.59972 4.68691 3.32072 3.97566 4.11395 3.73401C4.24849 3.69306 12.8408 3.65572 23.208 3.65112C40.2276 3.6435 42.1016 3.65787 42.5148 3.79883ZM8.31257 6.04176C7.70822 6.20824 6.89099 6.72798 6.58766 7.13883C6.03595 7.88597 5.92115 8.24433 5.9224 9.21462C5.92349 9.98393 5.96204 10.2211 6.14737 10.5965C6.5075 11.3262 6.99378 11.8173 7.70181 12.1663C8.27214 12.4474 8.44865 12.487 9.13783 12.4881C9.79622 12.4891 10.0183 12.4449 10.5092 12.215C11.2646 11.8611 11.9457 11.1414 12.2214 10.406C12.5078 9.64219 12.465 8.49614 12.1242 7.79976C11.4357 6.39308 9.79105 5.63452 8.31257 6.04176ZM16.8969 6.0189C15.2045 6.49778 14.1691 8.10416 14.475 9.7767C14.678 10.8871 15.3432 11.7337 16.404 12.2318C17.1794 12.5958 18.2744 12.5938 19.0662 12.2271C19.7663 11.9027 20.3668 11.3028 20.6969 10.5976C20.913 10.1361 20.9555 9.90916 20.9555 9.21462C20.9555 8.50288 20.9163 8.30397 20.6827 7.82752C19.9954 6.42624 18.3074 5.61975 16.8969 6.0189ZM28.5945 5.99719C26.5908 6.47002 25.4527 8.69301 26.2688 10.5401C26.5374 11.1481 27.2823 11.9039 27.9237 12.2193L28.4729 12.4893H33.647C38.8197 12.4893 38.8217 12.4892 39.302 12.2675C40.0378 11.9277 40.5582 11.4444 40.9201 10.7649C41.7155 9.27025 41.2711 7.47883 39.8628 6.50472C39.0099 5.91479 38.752 5.88995 33.6023 5.90081C31.0496 5.90627 28.7961 5.94959 28.5945 5.99719ZM9.98934 8.20377C10.5894 8.74735 10.6116 9.63262 10.0386 10.1584C9.58809 10.5718 9.11967 10.6599 8.63543 10.4222C7.7297 9.97768 7.56161 8.86877 8.29858 8.20094C8.70717 7.83064 9.57931 7.83209 9.98934 8.20377ZM18.5635 8.22291C19.1495 8.65959 19.178 9.59653 18.6221 10.153C18.191 10.5847 17.7202 10.665 17.1734 10.4C16.6537 10.148 16.4158 9.76301 16.4158 9.17367C16.4158 8.80104 16.471 8.66262 16.7346 8.37462C17.2328 7.83025 17.956 7.77022 18.5635 8.22291ZM38.7592 8.12946C39.3582 8.55702 39.5224 9.33114 39.1368 9.90887C38.6816 10.5911 38.747 10.5828 33.7816 10.5829C31.3315 10.583 29.1848 10.5546 29.0108 10.5198C28.5863 10.4348 28.075 9.9066 27.9929 9.46818C27.9114 9.03327 28.2033 8.30992 28.5312 8.13426C29.0098 7.87775 29.3982 7.8589 33.8424 7.87666L38.4309 7.89495L38.7592 8.12946ZM15.4695 22.3145C15.3519 22.3619 15.185 22.5086 15.0987 22.6404C14.9165 22.9188 12.9877 30.8787 12.9668 31.4382C12.9552 31.7482 13.0084 31.8638 13.2701 32.098C13.8325 32.6012 14.6112 32.3903 14.8446 31.6717C15.0707 30.9758 16.8181 23.515 16.8218 23.2295C16.8271 22.8211 16.6656 22.5422 16.3201 22.3633C16.0023 22.1988 15.7868 22.1864 15.4695 22.3145ZM8.93701 23.1234C8.52336 23.3624 5.77763 26.555 5.66115 26.9323C5.46132 27.58 5.63753 27.8924 7.195 29.6502C7.97849 30.5344 8.70905 31.3349 8.81849 31.4289C8.93974 31.5331 9.17803 31.6 9.42786 31.6C9.99003 31.6 10.3628 31.2219 10.3628 30.6516C10.3628 30.2775 10.2807 30.1588 9.09359 28.8177C8.39556 28.0291 7.82441 27.3521 7.82441 27.3131C7.82441 27.2742 8.07707 26.9572 8.38579 26.6086C10.4284 24.3025 10.3628 24.3902 10.3628 23.9672C10.3628 23.2231 9.57316 22.7558 8.93701 23.1234ZM19.7541 23.241C19.409 23.5319 19.3151 23.9171 19.4918 24.3174C19.563 24.4787 20.1517 25.2045 20.8 25.9303C21.4483 26.6561 21.9791 27.2778 21.9796 27.3118C21.9802 27.3458 21.4284 27.9946 20.7534 28.7536C19.2812 30.4092 19.1333 30.7752 19.7054 31.3481C19.8958 31.5388 20.0546 31.5992 20.3586 31.5969C20.5795 31.5952 20.8303 31.5401 20.916 31.4747C21.3468 31.1454 24.0449 27.9919 24.1384 27.7085C24.3407 27.0949 24.1899 26.7833 23.0739 25.5089C22.5001 24.8536 21.7431 24.0205 21.3917 23.6576C20.8336 23.0813 20.7079 22.9977 20.3979 22.9977C20.1621 22.9977 19.946 23.0795 19.7541 23.241ZM38.4799 26.9323C38.4803 27.4111 38.5355 27.752 38.651 27.9831C38.8056 28.2932 38.9086 28.3536 39.749 28.6275C40.2592 28.7938 41.0378 29.1127 41.4796 29.3362C41.9214 29.5598 42.3839 29.7427 42.5076 29.7427C42.7862 29.7427 43.0822 29.5485 43.6793 28.9739L44.1434 28.5269L44.875 29.2545C45.2776 29.6547 45.6066 30.0289 45.6066 30.0861C45.6066 30.1432 45.3875 30.406 45.1197 30.6702C44.8516 30.9345 44.5842 31.2971 44.5253 31.476C44.427 31.7742 44.4592 31.885 44.9076 32.8004C45.177 33.3499 45.4878 34.1101 45.5984 34.4899C45.8882 35.4854 46.0852 35.6393 47.15 35.7035L47.9987 35.7545L48.0266 36.7176C48.0447 37.3436 48.0151 37.7285 47.9414 37.8173C47.8625 37.9127 47.6007 37.9538 47.0724 37.9538C46.0566 37.9538 45.9086 38.0755 45.5602 39.1976C45.4135 39.6696 45.0961 40.437 44.8543 40.9035C44.4507 41.6827 44.424 41.7781 44.5237 42.0814C44.5836 42.2627 44.8516 42.6272 45.1197 42.8916C45.3875 43.1558 45.6066 43.4186 45.6066 43.4755C45.6066 43.6077 44.2201 44.992 44.0878 44.992C44.0336 44.992 43.7523 44.7518 43.4628 44.4584C42.7332 43.7186 42.5622 43.6992 41.5224 44.2393C41.0572 44.4811 40.2934 44.7956 39.8253 44.938C38.7062 45.2791 38.5773 45.436 38.5773 46.4597C38.5773 46.9883 38.5362 47.2508 38.4411 47.3298C38.3523 47.4035 37.9681 47.4334 37.3428 47.415L36.3809 47.387L36.3299 46.5374C36.2661 45.4729 36.1122 45.2755 35.1178 44.9808C34.7385 44.8683 33.9905 44.5568 33.4556 44.2883C32.5589 43.8387 32.4562 43.8087 32.1373 43.9045C31.9438 43.9624 31.5781 44.2249 31.3073 44.5002C31.0411 44.7706 30.7766 44.992 30.7196 44.992C30.6625 44.992 30.2939 44.6676 29.9005 44.2712C29.1096 43.4739 29.0924 43.3676 29.6861 42.9443C30.038 42.6936 30.3766 42.162 30.3766 41.861C30.3766 41.7374 30.1834 41.2587 29.9473 40.7972C29.7111 40.3357 29.4203 39.6278 29.301 39.2249C28.9846 38.1558 28.8134 38.014 27.7633 37.9538L26.9108 37.9051L26.8832 36.8054L26.8556 35.7054H27.5666C28.0482 35.7054 28.3877 35.6502 28.6187 35.5344C28.9292 35.3788 28.9907 35.2716 29.3075 34.3371C29.4988 33.7725 29.8177 33.0071 30.016 32.6361C30.2144 32.2651 30.3766 31.878 30.3766 31.7759C30.3766 31.4808 30.1343 31.0964 29.6522 30.6266C29.4063 30.3869 29.2051 30.146 29.2051 30.0914C29.2051 29.9291 30.5044 28.6674 30.6715 28.6674C30.756 28.6674 30.9988 28.847 31.2111 29.0664C31.6574 29.528 32.0239 29.7427 32.3655 29.7427C32.4982 29.7427 32.9806 29.547 33.4372 29.3078C33.8937 29.0686 34.5895 28.7784 34.9826 28.6629C35.4694 28.52 35.7829 28.362 35.9658 28.1677C36.2115 27.9065 36.2342 27.8175 36.2342 27.1181C36.2342 26.6978 36.2635 26.3246 36.2993 26.2888C36.3352 26.2529 36.8405 26.2236 37.4224 26.2236H38.4799V26.9323ZM35.9414 30.9714C34.301 31.4009 32.7724 32.6504 32.0541 34.1491C31.5524 35.1959 31.4126 35.9272 31.4714 37.1966C31.5084 37.9929 31.574 38.3387 31.7919 38.8824C32.5076 40.6702 33.7645 41.8827 35.5671 42.5235C36.4842 42.8495 38.0859 42.8893 39.0168 42.6091C41.051 41.9972 42.6227 40.4226 43.225 38.3939C43.4882 37.5071 43.4691 36.0499 43.1822 35.1189C42.5579 33.0922 40.825 31.4322 38.8464 30.965C38.0793 30.7839 36.6454 30.7871 35.9414 30.9714ZM39.1092 33.1473C41.6187 34.3232 42.2296 37.5515 40.3243 39.5686C38.3888 41.6176 35.0766 41.1087 33.823 38.5696C33.5197 37.9551 33.4586 37.7202 33.4227 37.0347C33.3701 36.0308 33.5474 35.3637 34.0783 34.5695C34.5592 33.8502 35.2941 33.2842 36.1276 32.9914C37.0586 32.6644 38.2069 32.7244 39.1092 33.1473ZM14.257 38.1005C13.6907 38.4087 13.6599 39.2196 14.1971 39.6722C14.4515 39.8864 14.5683 39.9206 14.8976 39.8765C15.4356 39.8041 15.7323 39.4518 15.7323 38.8857C15.7323 38.5304 15.6827 38.4183 15.4319 38.2071C15.0936 37.9219 14.6578 37.8824 14.257 38.1005Z" fill="#297899"/>
</g>
<defs>
<clipPath id="clip0_266_111">
<rect width="50" height="47.6974" fill="white" transform="translate(0 1.6936)"/>
</clipPath>
</defs>
</svg>
