<svg width="50" height="49" viewBox="0 0 50 49" fill="none" xmlns="http://www.w3.org/2000/svg">
<g clip-path="url(#clip0_847_142)">
<path fill-rule="evenodd" clip-rule="evenodd" d="M13.4911 0.627766C12.5049 0.794873 11.7196 1.35951 11.2609 2.23133C11.0162 2.69626 10.999 2.81781 10.967 4.30148L10.933 5.87763L9.10839 5.91401C6.93194 5.95733 6.56467 6.06924 5.77697 6.92934C5.11589 7.65132 4.98655 8.08964 4.98655 9.60921V10.8492L3.59359 10.8894C2.32152 10.9262 2.1572 10.952 1.70128 11.1875C1.4267 11.3293 1.00587 11.6632 0.766086 11.9293C-0.0633473 12.85 0.00116929 11.3386 0.00116929 29.8382C0.00116929 47.9528 -0.0384204 46.807 0.6175 47.6653C0.967062 48.1228 1.51917 48.534 2.05153 48.7334C2.32895 48.8373 4.73865 48.8682 14.4131 48.8919C21.5579 48.9093 26.699 48.8843 27.0933 48.8297C28.2679 48.6672 29.0964 48.0768 29.5556 47.0745C29.7259 46.7031 29.7686 46.3893 29.7981 45.2936L29.834 43.963L31.12 43.9162C31.9845 43.8847 32.5566 43.8146 32.8651 43.7028C33.5023 43.4715 34.152 42.8685 34.478 42.2061C34.7368 41.6801 34.7543 41.562 34.7868 40.1195L34.8214 38.5906L36.6441 38.558C38.3086 38.5281 38.5112 38.5054 38.9776 38.2955C39.2589 38.1692 39.6697 37.8699 39.8908 37.6307C40.5151 36.9544 40.6928 36.4564 40.7447 35.233L40.7891 34.1827L41.9901 35.3491C43.5395 36.8538 43.9201 37.0623 45.1141 37.0607C46.3342 37.0593 46.6701 36.8794 48.1586 35.4281C49.6849 33.9403 49.9914 33.416 49.9974 32.2836C50.0053 30.8453 50.1911 31.0853 45.199 26.0865L40.7641 21.6456V15.1409C40.7641 10.283 40.7342 8.57115 40.6464 8.37898C40.5398 8.14503 39.1168 6.90329 33.677 2.29591C32.4985 1.29776 31.6946 0.687955 31.4775 0.62718C31.0714 0.513532 14.1619 0.514117 13.4911 0.627766ZM30.3225 4.84701C30.3527 7.06796 30.3587 7.12661 30.6134 7.66868C30.9612 8.40911 31.574 9.05197 32.2457 9.38122L32.7972 9.65145L35.7786 9.70023L38.7602 9.74901L38.7855 14.651C38.7993 17.3471 38.777 19.553 38.7362 19.553C38.6947 19.553 37.2099 18.1012 35.4359 16.3268C32.9138 13.8039 32.0935 13.0415 31.673 12.8287C30.6827 12.3279 24.5986 10.0651 24.2403 10.0644C23.7117 10.0635 23.278 10.3364 23.0652 10.8041C22.9632 11.0286 22.8786 11.293 22.8774 11.3916C22.875 11.5921 25.3984 18.2555 25.7202 18.8983C25.8576 19.1729 28.0611 21.4439 32.3674 25.7492L38.8089 32.1894V33.9225C38.8089 35.2232 38.7734 35.7406 38.6658 35.9972C38.4003 36.6314 38.4678 36.6245 32.4018 36.6245H26.9659L26.6801 36.9097C26.375 37.2143 26.2958 37.7215 26.4951 38.0932C26.735 38.5406 26.9905 38.5758 30.0157 38.5758H32.8648L32.831 39.9396L32.7972 41.3037L32.4776 41.6225L32.1581 41.9412H19.9121C8.27859 41.9412 7.65266 41.9324 7.39724 41.7656C7.24944 41.6686 7.08638 41.4794 7.03497 41.3445C6.88257 40.9445 6.91355 8.73776 7.06664 8.43204C7.31316 7.9396 7.71658 7.84184 9.38543 7.86993L10.9006 7.89549L10.9495 22.1381L10.9984 36.3807L11.2084 36.8343C11.4764 37.413 12.0538 37.9889 12.6677 38.2906C13.1385 38.5218 13.2109 38.5274 16.0113 38.558L18.8737 38.5889L19.2127 38.2508C19.5848 37.8794 19.6407 37.5669 19.4134 37.1284C19.1676 36.6541 19.0095 36.6287 16.1467 36.6014L13.4747 36.5758L13.1897 36.2574L12.9045 35.9386V19.6442C12.9045 2.15017 12.8821 2.96717 13.3688 2.68427C13.4813 2.6189 16.4086 2.58379 21.9158 2.58184L30.2915 2.57891L30.3225 4.84701ZM34.75 5.79197L36.9957 7.70039L35.2 7.72704C33.1043 7.75816 32.8656 7.69161 32.4834 6.97023C32.2801 6.58655 32.2595 6.41905 32.2595 5.14296C32.2595 4.04523 32.2862 3.75392 32.3817 3.8108C32.449 3.85089 33.5145 4.74243 34.75 5.79197ZM15.6416 5.02826C15.0077 5.27641 14.8495 6.09576 15.3408 6.58605L15.6265 6.87122H21.5067H27.387L27.6727 6.58605C28.1736 6.08622 28.0014 5.25135 27.3509 5.02503C26.9567 4.88786 15.9923 4.89089 15.6416 5.02826ZM15.5218 9.75474C14.9639 10.057 14.8745 10.8033 15.3408 11.2686L15.6265 11.5537H17.7922H19.9578L20.2435 11.2686C20.6979 10.8151 20.5862 10.0306 20.0263 9.74168C19.6309 9.5377 15.9028 9.54842 15.5218 9.75474ZM27.9584 13.4533C29.3294 13.9725 30.4833 14.4283 30.5226 14.4662C30.5619 14.5041 29.8706 15.2559 28.9865 16.137C28.1023 17.0181 27.3616 17.7192 27.3404 17.6949C27.3192 17.6706 26.8817 16.5533 26.3681 15.2119C25.8546 13.8706 25.4009 12.6891 25.3602 12.5864C25.3173 12.4786 25.3239 12.4228 25.3758 12.4544C25.4253 12.4846 26.5875 12.934 27.9584 13.4533ZM4.98655 27.1447C4.98655 40.0406 5.0022 41.5133 5.14355 41.9274C5.35724 42.5531 6.12164 43.3682 6.76859 43.66L7.28375 43.8922L17.5803 43.9189L27.8769 43.9455L27.8443 45.1222L27.8118 46.2988L27.4925 46.583L27.1733 46.8676L14.8824 46.8646C5.37266 46.8623 2.5574 46.8347 2.44049 46.7426C2.3574 46.6771 2.21439 46.5153 2.12279 46.3824C1.96746 46.1577 1.95622 45.0429 1.95622 29.9158C1.95622 15.6239 1.97382 13.6562 2.10412 13.4049C2.34948 12.9313 2.66092 12.8302 3.88684 12.8258L4.98655 12.8219V27.1447ZM15.3408 14.5703C15.0357 14.8748 14.9564 15.3821 15.1558 15.7538C15.3926 16.1955 15.669 16.2362 18.4324 16.2362H21.0375L21.3699 15.9045C21.5807 15.6942 21.7023 15.4783 21.7023 15.3143C21.7023 14.981 21.4591 14.5139 21.2189 14.3857C21.1029 14.3237 19.995 14.2852 18.3287 14.2852H15.6265L15.3408 14.5703ZM37.6595 21.2838L43.1095 26.7218L41.3753 28.4543L39.6411 30.1869L34.1421 24.6998L28.6434 19.2129L30.3283 17.5295C31.2548 16.6036 32.0574 15.846 32.1115 15.846C32.1657 15.846 34.6625 18.293 37.6595 21.2838ZM15.3082 19.2679C14.8434 19.819 15.0357 20.5728 15.7062 20.8271C15.8393 20.8777 17.4246 20.9186 19.2404 20.9185C22.1794 20.9184 22.5699 20.9001 22.8753 20.7478C23.466 20.4533 23.5752 19.6928 23.0954 19.2139L22.8486 18.9677H19.205H15.5612L15.3082 19.2679ZM15.9524 23.4241C15.7738 23.5119 15.5099 23.7379 15.3659 23.9263L15.1039 24.269V26.5864C15.1039 28.7747 15.1152 28.9187 15.3055 29.1731C15.4164 29.3213 15.6285 29.533 15.7769 29.6436C16.0403 29.84 16.1695 29.8454 21.1941 29.8717C24.7538 29.8903 26.4211 29.8657 26.5995 29.792C26.9575 29.644 27.4219 29.1288 27.5543 28.7328C27.6947 28.313 27.7015 25.0042 27.5631 24.5068C27.4337 24.0418 27.0289 23.5627 26.6221 23.393C26.3663 23.2864 25.3066 23.2605 21.2899 23.2622C16.8488 23.2642 16.2399 23.2826 15.9524 23.4241ZM25.7101 26.5767V27.9425H21.3601H17.0101V26.5767V25.211H21.3601H25.7101V26.5767ZM46.2582 29.8691C47.6878 31.3056 47.9931 31.6616 48.048 31.958C48.0842 32.1546 48.0822 32.418 48.0431 32.5434C47.9576 32.8193 46.003 34.8297 45.6322 35.0235C45.2951 35.1995 44.9306 35.1988 44.5961 35.0215C44.4507 34.9449 43.5845 34.1327 42.6714 33.2169L41.0105 31.5519L42.7191 29.8448C43.6589 28.9058 44.4516 28.1376 44.4813 28.1376C44.5105 28.1376 45.3102 28.9168 46.2582 29.8691ZM15.5218 32.3869C14.9639 32.6891 14.8745 33.4354 15.3408 33.9008L15.6265 34.186H23.9385C30.1745 34.186 32.3144 34.1567 32.5067 34.0692C32.6476 34.0051 32.8256 33.8317 32.9023 33.684C33.1293 33.2458 33.075 32.9314 32.7092 32.5664L32.3768 32.2348L24.0825 32.2387C16.9533 32.242 15.7508 32.2629 15.5218 32.3869ZM22.2812 36.9097C21.9762 37.2143 21.8969 37.7215 22.0962 38.0932C22.2247 38.333 22.6928 38.5758 23.0268 38.5758C23.3759 38.5758 23.9506 38.0011 23.9506 37.6521C23.9506 36.7475 22.9083 36.284 22.2812 36.9097Z" fill="#297899"/>
</g>
<defs>
<clipPath id="clip0_847_142">
<rect width="50" height="48.3553" fill="white" transform="translate(0 0.542236)"/>
</clipPath>
</defs>
</svg>
