<svg width="46" height="46" viewBox="0 0 60 64" fill="none" xmlns="http://www.w3.org/2000/svg">
<g clip-path="url(#clip0_236_2774)">
<path d="M34.7429 62.1962C33.9137 62.9721 32.9113 63.4067 31.824 63.6664C31.7058 63.6947 31.5759 63.6797 31.4927 63.793H29.8726C28.802 63.4983 27.7397 63.1886 26.8772 62.436C26.7373 61.3537 26.8139 60.2697 26.8688 59.1858C26.8755 59.0626 26.9488 58.9543 27.0653 58.8894C27.5182 58.8395 27.6947 59.2307 27.9511 59.4705C28.7487 60.2181 29.6345 60.6927 30.775 60.651C31.7258 60.6161 32.4717 60.1931 33.1494 59.5937C33.4891 59.294 33.7921 58.9543 34.1135 58.633C34.2467 58.4981 34.3849 58.2717 34.6146 58.5248C34.7778 58.7579 34.7978 59.0276 34.7911 59.2957C34.7695 60.2614 34.8644 61.2305 34.7445 62.1945L34.7429 62.1962Z" fill="#172D47"/>
<path d="M34.743 62.1962C34.5033 61.7683 34.6381 61.3021 34.6082 60.8525C34.5566 60.05 34.7197 59.2374 34.485 58.4432C34.3867 58.1801 34.5799 58.0119 34.6981 57.8304C36.2599 55.4494 37.2972 52.8386 38.1048 50.1229C38.2363 49.6817 38.1081 49.4752 37.6835 49.3454C36.891 49.1039 36.1051 48.8359 35.3425 48.5078C35.0777 48.3946 34.783 48.3114 34.7114 47.9684C34.7097 47.026 34.4999 46.0752 34.8446 45.1511C35.1193 44.893 35.3907 45.0745 35.6505 45.1744C36.5962 45.5374 37.5453 45.8904 38.5061 46.2167C38.904 46.3516 39.0738 46.2401 39.1454 45.8371C39.3652 44.6166 39.575 43.3945 39.7465 42.1657C39.7648 42.0308 39.8531 41.861 39.6932 41.7711C39.5467 41.6895 39.4202 41.821 39.3003 41.8926C38.168 42.5769 37.0358 43.2629 35.8703 43.889C35.5639 44.0538 35.2509 44.3602 34.8513 44.0638C34.5915 43.6959 34.6731 43.2729 34.6731 42.8683C34.6731 42.2739 34.6248 41.6778 34.7131 41.0867C34.8346 40.6805 35.2076 40.5456 35.524 40.3641C36.9659 39.5449 38.3629 38.6541 39.7465 37.74C40.1045 37.5035 40.2827 37.2221 40.301 36.7759C40.3909 34.623 40.4275 32.4718 40.4259 30.3172C40.4259 29.1766 40.2144 28.0477 40.2893 26.9055C40.316 26.4959 40.0645 26.2695 39.7565 26.063C38.4311 25.1739 37.0791 24.328 35.6988 23.5271C35.3108 23.3024 34.8579 23.1542 34.6198 22.7229C34.5432 21.6889 34.4017 20.6516 34.7131 19.6309C35.0344 19.3595 35.3058 19.6109 35.5639 19.7441C36.7977 20.3869 37.9882 21.1045 39.1787 21.8271C39.3352 21.922 39.5117 22.1152 39.6766 22.0219C39.9047 21.8954 39.7399 21.6456 39.7149 21.4541C39.57 20.3003 39.3519 19.158 39.1604 18.0125C39.0822 17.5463 38.904 17.4297 38.4461 17.5929C37.487 17.9326 36.533 18.2822 35.5839 18.6485C35.2992 18.7584 35.0028 18.9249 34.7164 18.6402C34.4517 17.6612 34.415 16.6838 34.7347 15.7081C35.7421 15.2169 36.811 14.8772 37.8733 14.5392C38.3912 14.3744 38.4161 14.1512 38.2829 13.6967C37.4754 10.9394 36.3981 8.3036 34.8563 5.86763C34.6215 5.42806 34.6615 4.94853 34.6631 4.47732C34.6631 3.83961 34.6431 3.20023 34.6748 2.56251C34.6898 2.2678 34.6615 1.91315 35.106 1.87318C36.9176 3.41002 38.0765 5.41141 39.0805 7.5127C39.928 9.28931 40.589 11.1375 41.1085 13.0373C41.1601 13.2271 41.1801 13.4619 41.4549 13.4919C41.5797 13.725 41.5414 13.9781 41.5414 14.2245C41.5414 26.0064 41.5414 37.7883 41.5414 49.5685C41.5414 49.8149 41.5797 50.068 41.4549 50.3011C41.1318 50.366 41.1535 50.6508 41.0852 50.8789C40.1761 53.8593 39.1288 56.7831 37.3422 59.3756C36.6112 60.4346 35.827 61.4536 34.748 62.1962H34.743Z" fill="#297899"/>
<path d="M27.2264 58.936C26.8967 59.0226 27.0233 59.294 27.0099 59.4972C26.945 60.4762 27.1381 61.4669 26.8767 62.436C25.6413 61.5918 24.6922 60.4729 23.8713 59.2407C22.188 56.7115 21.1207 53.9093 20.2665 51.0154C20.1749 50.7057 20.1899 50.2611 19.6554 50.3261C19.5172 50.2079 19.4706 50.043 19.4739 49.8782C19.4956 48.8225 19.3574 47.7686 19.429 46.7129C19.4523 46.3616 19.4556 46.0086 19.454 45.6556C19.449 36.1748 19.4673 26.694 19.4373 17.2133C19.434 16.2392 19.4806 15.2668 19.4573 14.2928C19.4506 14.0064 19.434 13.705 19.6554 13.4686C19.7936 13.4453 20.0067 13.5169 20.05 13.3603C20.2349 12.701 20.5729 13.0823 20.8809 13.2138C21.2622 13.3753 21.6452 13.5318 22.0248 13.695C22.3828 13.8482 22.9139 13.7217 22.9955 14.3394C23.0072 14.4326 23.3102 14.4976 23.4834 14.5608C24.7072 15.0004 25.956 15.3767 27.1298 15.9512C27.4429 16.9219 27.4079 17.8976 27.1581 18.8733C26.8751 19.1664 26.5737 18.9915 26.2956 18.8783C25.1801 18.4254 24.0528 18.0042 22.9156 17.6062C22.3278 17.3998 22.2795 17.4297 22.163 18.0208C21.8966 19.3762 21.6435 20.7348 21.4953 22.2217C22.6292 21.5191 23.6665 20.8747 24.7438 20.2986C25.3665 19.9656 25.9643 19.5893 26.602 19.2879C26.8035 19.193 27.0516 18.9882 27.2447 19.3295C27.3779 20.3252 27.3313 21.3243 27.2763 22.32C27.2048 22.643 26.9317 22.7679 26.6819 22.9111C24.9753 23.8901 23.2886 24.9041 21.6485 25.9931C21.2722 26.2428 21.0807 26.5392 21.0557 27.0054C20.8726 30.2739 20.8726 33.5407 21.0557 36.8092C21.0824 37.2804 21.2822 37.5668 21.6568 37.8149C23.3502 38.9355 25.0901 39.9811 26.8551 40.9835C27.0999 41.1234 27.4079 41.2033 27.4512 41.5579C27.4379 42.3621 27.4462 43.168 27.4395 43.9722C27.4379 44.2187 27.4528 44.4701 27.2997 44.6882C26.9933 44.7715 26.7519 44.6 26.5021 44.4734C24.9836 43.7042 23.5416 42.8034 22.0831 41.9326C21.9249 41.8377 21.7784 41.7161 21.5353 41.6495C21.512 42.0475 21.6069 42.4154 21.6568 42.7867C21.78 43.7325 21.9382 44.6732 22.128 45.6073C22.2929 46.4182 22.2979 46.4315 23.1004 46.1351C24.2093 45.7255 25.3166 45.3176 26.4155 44.8797C26.6719 44.7781 26.94 44.5817 27.2314 44.8164C27.4545 45.0762 27.4345 45.3942 27.4379 45.7022C27.4445 46.3433 27.4379 46.986 27.4528 47.6254C27.4395 48.0017 27.1265 48.0699 26.8651 48.1748C25.8078 48.5978 24.7438 49.0007 23.6615 49.3504C23.172 49.5085 23.0738 49.765 23.222 50.2328C24.1411 53.145 25.2067 55.9839 27.0666 58.4565C27.1698 58.5947 27.3513 58.7212 27.2297 58.941L27.2264 58.936Z" fill="#172D47"/>
<path d="M48.4531 26.9671C48.4531 23.8019 51.0806 21.1877 54.2525 21.1961C57.3828 21.2044 59.9936 23.8235 60.0002 26.9621C60.0069 30.1157 57.3894 32.7199 54.1942 32.7432C51.1022 32.7648 48.4515 30.0991 48.4531 26.9671Z" fill="#172D47"/>
<path d="M19.6563 13.4686C19.6563 25.755 19.6563 38.0397 19.6563 50.3261C18.3142 50.764 16.9222 50.9721 15.5369 51.1936C13.8969 51.455 12.2385 51.5083 10.5768 51.455C10.3536 51.4483 10.1155 51.4949 9.91406 51.3467C10.4169 51.1186 10.5268 50.714 10.5135 50.1929C10.5018 49.665 10.3986 49.1206 10.625 48.6061C10.8598 48.3763 11.1628 48.4229 11.4476 48.4179C13.757 48.3863 16.0248 48.0333 18.2676 47.5088C19.1168 47.3107 19.1484 47.2541 18.9753 46.4115C18.5257 44.2387 18.256 42.0391 18.0079 39.8379C17.9596 39.4067 17.7847 39.1086 17.4417 38.8622C17.0371 38.5725 16.6292 38.2878 16.2329 37.9881C16.0048 37.8149 15.7467 37.6584 15.6984 37.3337C15.7983 36.2264 15.6235 35.1092 15.81 34.0053C16.0697 33.6673 16.2912 33.932 16.4927 34.0719C16.8606 34.3266 17.1903 34.6347 17.6382 34.9011C17.6049 32.8747 17.6232 30.9366 17.6249 28.8952C17.1953 29.16 16.8656 29.4597 16.5043 29.7128C16.3029 29.8543 16.0881 30.1174 15.815 29.7977C15.6668 28.6688 15.6918 27.5399 15.79 26.411C16.4011 25.8166 17.147 25.3986 17.813 24.8758C18.0245 24.7093 18.1411 24.5495 18.1644 24.2697C18.3592 21.8388 18.7155 19.4294 19.2283 17.0451C19.3449 16.5023 19.2 16.2975 18.6955 16.1943C17.7664 16.0044 16.8423 15.783 15.9182 15.5749C15.8533 14.6191 15.6951 13.6584 16.0431 12.7193C17.2752 12.8309 18.4674 13.1389 19.6563 13.4669V13.4686Z" fill="#172D47"/>
<path d="M41.4498 50.3011C41.295 50.078 41.3333 49.8232 41.3333 49.5768C41.3333 37.7899 41.3333 26.0014 41.3333 14.2145C41.3333 13.9681 41.2967 13.7133 41.4498 13.4902C43.7443 12.8975 46.0587 12.4396 48.4364 12.3563C48.5463 13.3154 48.6329 14.2745 48.3148 15.2152C47.1959 15.3767 46.0737 15.5182 44.9598 15.7047C44.1073 15.8479 43.2664 16.0561 42.4156 16.2142C42.021 16.2875 41.8994 16.5056 41.9877 16.8669C42.5288 19.1197 42.8535 21.4142 43.04 23.7153C43.1066 24.5395 43.4479 24.9574 44.0573 25.3287C44.407 25.5418 44.765 25.7483 45.053 26.0497C44.9914 26.8489 45.0114 27.6498 45.0031 28.4507C44.9997 28.777 45.018 29.115 44.77 29.3814C44.3037 29.5579 44.1189 29.0251 43.6244 28.9519C43.6227 30.9066 43.6227 32.8464 43.6244 34.8195C44.1039 34.8145 44.3004 34.2384 44.7666 34.3882C45.053 34.6413 44.9914 34.9843 45.0064 35.3057C45.043 36.1016 44.9231 36.9058 45.1179 37.6934C45.1363 37.8848 45.0147 37.9964 44.8848 38.1046C44.7733 38.1979 44.6501 38.2745 44.5235 38.3461C43.7077 38.8056 43.2098 39.3867 43.1549 40.4307C43.0416 42.5603 42.6404 44.6632 42.2141 46.7545C42.1309 47.1641 42.2657 47.3773 42.6703 47.4738C43.3147 47.627 43.9657 47.7569 44.6101 47.9118C44.8199 47.9617 45.088 47.9434 45.1179 48.2631C44.9514 48.9158 45.0297 49.5818 45.0081 50.2412C44.9997 50.5259 45.0464 50.8273 44.8249 51.067C43.701 50.8139 42.5588 50.6408 41.4532 50.3028L41.4498 50.3011Z" fill="#297899"/>
<path d="M10.6863 48.5977C10.6863 49.2371 10.6496 49.8815 10.6979 50.5175C10.7445 51.127 10.5531 51.425 9.91535 51.3467C8.11876 51.2901 6.42208 50.8456 4.92686 49.8432C2.71734 48.3596 1.82488 45.8871 2.38434 43.1314C2.97043 40.2492 4.47564 37.8399 6.22893 35.5554C7.12473 34.3882 8.08712 33.2726 9.1411 32.2436C9.36255 32.0272 9.50408 31.8457 9.18439 31.6009C8.94795 31.4211 8.91965 31.2713 9.23601 31.1114C9.56569 30.9466 9.8654 30.7201 10.1784 30.5203C10.628 30.547 10.6147 30.905 10.618 31.1963C10.633 32.4085 10.6679 33.6223 10.6013 34.8328C10.4798 35.3906 10.0502 35.7469 9.70555 36.1532C8.2503 37.8682 6.90661 39.6548 6.0158 41.7394C5.68946 42.5037 5.41805 43.2846 5.35478 44.1271C5.20826 46.0885 6.05577 47.349 7.9356 47.9217C8.57165 48.1149 9.21103 48.2831 9.88038 48.3247C10.1651 48.343 10.4631 48.3713 10.6863 48.5961V48.5977Z" fill="#172D47"/>
<path d="M22.8878 1.40031C26.4477 0.591094 29.9093 3.38671 29.8544 7.18635C29.8144 10.0119 27.5216 12.4562 24.7227 12.736C24.0084 12.8075 23.3274 12.7609 22.6447 12.5728C22.5465 12.4512 22.5465 12.3064 22.5498 12.1598C22.5964 8.88969 22.5531 5.61954 22.5731 2.34938C22.5748 2.00638 22.5148 1.62842 22.8861 1.40197L22.8878 1.40031Z" fill="#297899"/>
<path d="M6.57317 30.7484C3.10654 31.2263 0.315923 28.7104 0.0228743 25.5468C-0.261849 22.4548 2.04258 19.7774 4.79823 19.4178C5.31107 19.3512 5.81558 19.2846 6.33174 19.3362C6.79629 19.4528 6.76632 19.8374 6.76965 20.1837C6.78297 21.5074 6.77464 22.8328 6.77464 24.1565C6.77464 26.0397 6.77964 27.9229 6.77131 29.806C6.77131 30.129 6.83292 30.4754 6.57151 30.7484H6.57317Z" fill="#297899"/>
<path d="M54.5184 34.8911C56.4498 37.2271 58.1182 39.7181 58.8159 42.7201C59.3304 44.9363 59.1539 47.0543 57.5304 48.8392C56.6147 49.8449 55.4874 50.5076 54.1654 50.8372C53.9123 50.729 53.8707 50.4976 53.8673 50.2695C53.8557 49.5052 53.7957 48.7409 53.9073 47.98C53.9939 47.6953 54.2436 47.5754 54.4684 47.4306C55.7572 46.6064 56.1385 45.3992 55.9453 43.9456C55.7555 42.5203 55.0895 41.2799 54.4318 40.0361C54.3069 39.7996 54.1521 39.5749 54.1204 39.2985C53.904 38.0913 53.9722 36.8758 54.0055 35.662C54.0139 35.3506 53.9439 34.8744 54.5184 34.8894V34.8911Z" fill="#297899"/>
<path d="M6.57346 30.7484C6.57346 27.1836 6.57346 23.617 6.57513 20.0522C6.57513 19.7858 6.62008 19.5044 6.33203 19.3345C9.34244 19.6842 11.5753 22.1634 11.5453 25.1239C11.5153 27.9295 9.29582 30.4404 6.57346 30.7484Z" fill="#297899"/>
<path d="M27.1319 22.4282C27.1302 21.3442 27.1286 20.2603 27.1252 19.178C27.027 19.1414 26.9854 19.0698 26.997 18.9666C27.2768 18.2223 27.0703 17.4497 27.1286 16.6938C27.1469 16.4473 27.1319 16.1976 27.1319 15.9495C28.1576 16.3741 29.1932 16.782 30.2056 17.2366C30.5253 17.3798 30.765 17.3665 31.0714 17.2283C32.2769 16.6871 33.4657 16.1027 34.7312 15.7064C34.7312 16.494 34.7362 17.2815 34.7278 18.0674C34.7262 18.3005 34.7611 18.5203 34.8644 18.7285C34.8511 18.9882 34.573 18.9732 34.4514 19.1197C34.5763 19.2829 34.9077 19.2513 34.8544 19.5676C34.598 20.2703 34.7811 20.9963 34.7345 21.7106C34.7112 22.0602 34.7312 22.4115 34.7328 22.7629C34.5031 22.9227 34.3465 22.7179 34.1784 22.6347C33.1777 22.1368 32.2136 21.5707 31.2079 21.0795C30.8366 20.898 30.5186 20.888 30.1523 21.0795C29.383 21.4824 28.5588 21.7722 27.8212 22.2434C27.6231 22.3699 27.405 22.5331 27.1319 22.4265V22.4282Z" fill="#172D47"/>
<path d="M22.888 1.4003C22.7249 1.6434 22.7715 1.91979 22.7715 2.18787C22.7698 5.32315 22.7681 8.45844 22.7731 11.5937C22.7731 11.9284 22.7498 12.2547 22.6449 12.5728C20.209 11.9967 18.434 9.81712 18.3025 7.24129C18.1793 4.83196 19.7977 2.44095 22.1138 1.61842C22.3652 1.52851 22.6283 1.47356 22.8864 1.40196L22.888 1.4003Z" fill="#297899"/>
<path d="M10.4451 35.0309C10.4435 33.7588 10.4418 32.4851 10.4368 31.213C10.4368 30.9516 10.4967 30.6635 10.1787 30.5203C10.4218 30.2672 10.6616 30.0108 10.9113 29.7644C11.0062 29.6712 11.1161 29.4713 11.261 29.5996C11.6856 29.9775 11.8904 29.5812 12.1318 29.3731C13.3257 28.3524 14.4928 27.3001 15.7916 26.4093C16.043 27.0071 15.8832 27.6348 15.9131 28.2475C15.9398 28.8053 15.9231 29.3648 15.9248 29.9226C15.8515 30.4437 15.362 30.6019 15.0373 30.88C13.7835 31.9623 13.7819 31.8274 15.039 32.9113C15.362 33.1894 15.8549 33.3459 15.9231 33.8704C15.9215 34.8012 15.9181 35.7303 15.9181 36.661C15.9181 36.9108 15.9281 37.1589 15.7916 37.382C15.5035 37.4519 15.3254 37.2438 15.1372 37.0973C14.1099 36.2881 13.0709 35.4955 12.1168 34.598C11.6506 34.1585 11.5807 34.1668 11.0962 34.6147C10.9063 34.7895 10.7665 35.0609 10.4418 35.0276L10.4451 35.0309Z" fill="#172D47"/>
<path d="M10.8115 15.2002C9.50615 15.3817 8.17578 15.4333 6.97861 16.0977C6.28595 16.4806 5.7215 16.9702 5.42512 17.7194C5.33354 17.9492 5.20866 18.1057 4.94559 18.1324C4.00816 18.2273 3.14067 18.542 2.22656 19.0481C2.23988 17.8859 2.4963 16.8952 3.02745 15.9745C4.01149 14.2711 5.57664 13.3787 7.3982 12.8309C8.47382 12.5078 9.58441 12.4729 10.6867 12.353C10.7616 12.4229 10.8682 12.4845 10.8865 12.5844C11.038 13.4602 11.1496 14.3361 10.8115 15.1969V15.2002Z" fill="#172D47"/>
<path d="M45.0494 37.7483C44.7463 37.5818 44.8396 37.2904 44.8212 37.034C44.758 36.1598 44.9628 35.2724 44.7014 34.4066C44.6514 34.0602 44.9628 33.9636 45.1509 33.8171C45.7886 33.3193 46.3781 32.7648 47.0075 32.2603C47.3405 31.9939 47.3488 31.8024 47.0091 31.536C46.3747 31.0365 45.7786 30.4904 45.1526 29.9792C44.9661 29.826 44.6547 29.7328 44.6997 29.3881C44.9395 28.5206 44.7696 27.6348 44.8212 26.759C44.8362 26.5026 44.7413 26.2095 45.051 26.0497C45.7037 26.5475 46.3581 27.042 47.0075 27.5449C47.1506 27.6564 47.2872 27.773 47.3155 27.9845C47.4603 29.0384 47.8949 29.9875 48.4094 30.905C48.1447 32.2337 48.1164 33.564 48.4111 34.8927C48.5626 35.1592 48.3878 35.3356 48.2129 35.4755C47.2955 36.2148 46.393 36.9757 45.4323 37.6634C45.3208 37.7433 45.2042 37.8582 45.0444 37.7516L45.0494 37.7483Z" fill="#297899"/>
<path d="M48.3147 15.2169C48.343 14.2628 48.2115 13.3021 48.4363 12.358C50.6741 12.2564 52.8869 12.3613 54.9982 13.2171C55.1481 13.2771 55.2829 13.372 55.4261 13.4503C55.3079 14.2295 55.3645 15.0171 55.3395 15.7996C55.3312 16.0794 55.3778 16.3957 55.0432 16.5522C53.508 15.455 51.7347 15.2568 49.9248 15.2052C49.3887 15.1902 48.8509 15.2119 48.3147 15.2152V15.2169Z" fill="#297899"/>
<path d="M35.1028 1.87151C34.8114 2.00638 34.8563 2.27113 34.8563 2.51589C34.8547 3.63314 34.853 4.74872 34.853 5.86596C34.1803 5.08506 33.5942 4.2209 32.7134 3.6398C31.9525 3.13695 31.1483 2.80061 30.2059 2.97711C29.9711 3.02206 29.7596 2.99709 29.6048 2.77064C29.0803 2.00305 28.341 1.46857 27.5801 0.955738C29.688 -0.606077 32.9249 -0.223116 35.1044 1.87151H35.1028Z" fill="#297899"/>
<path d="M55.0449 16.5522C55.3013 15.7613 55.1015 14.9488 55.1615 14.1479C55.1815 13.8848 55.1032 13.5935 55.4279 13.4486C57.2744 14.371 58.5382 15.7813 58.9445 17.8343C59.1876 19.0598 59.0793 20.2936 58.6947 21.5807C57.9121 21.0146 57.1262 20.5334 56.2254 20.2836C56.0573 20.237 56.0107 20.0821 56.0506 19.9323C56.4003 18.6003 55.9274 17.5146 55.0449 16.5506V16.5522Z" fill="#297899"/>
<path d="M48.4095 35.011C48.0665 34.971 48.0582 34.7212 48.0598 34.4615C48.0615 33.4891 48.0565 32.5184 48.0632 31.546C48.0648 31.2779 48.0698 30.9949 48.4128 30.9033C49.6549 32.6666 51.3633 33.624 53.4895 33.9037C54.0274 33.9736 54.2005 34.5331 54.5185 34.8911C54.1156 35.0776 54.1705 35.4522 54.1689 35.7869C54.1622 36.9924 54.1289 38.1995 54.2754 39.4017C53.9907 39.4067 53.8991 39.1703 53.7793 38.9888C52.7536 37.422 51.5081 36.035 50.2727 34.638C49.7632 34.0619 49.6999 34.0702 49.1338 34.583C48.9223 34.7745 48.7458 35.0293 48.4095 35.0093V35.011Z" fill="#297899"/>
<path d="M54.0423 47.8651C54.0423 48.6394 54.0423 49.4136 54.039 50.1879C54.039 50.4143 54.0457 50.6358 54.1656 50.8372C52.8951 51.3151 51.5648 51.4333 50.2244 51.4583C49.585 51.4716 48.944 51.4433 48.3029 51.435C47.9266 51.4167 47.7601 51.2102 47.7535 50.8422C47.7418 50.2445 47.7335 49.6484 47.7584 49.0523C47.7751 48.6644 47.9616 48.4379 48.3662 48.4246C50.1428 48.4412 51.9127 48.3963 53.6261 47.8335C53.7626 47.7885 53.9108 47.7769 54.044 47.8668L54.0423 47.8651Z" fill="#297899"/>
<path d="M10.8114 15.2002C10.7548 14.2528 10.9396 13.2937 10.6865 12.3547C12.4864 12.2747 14.2764 12.3413 16.0446 12.7193C15.9747 13.67 16.1912 14.6324 15.9198 15.5749C14.2214 15.4 12.5264 15.1586 10.8114 15.2002Z" fill="#172D47"/>
<path d="M48.4546 48.5828C48.0617 48.5445 47.9068 48.706 47.9285 49.1123C47.9584 49.6834 47.9584 50.2578 47.9285 50.8289C47.9101 51.1486 48.0367 51.3201 48.3031 51.4333C47.1326 51.4133 45.982 51.1919 44.8231 51.0637C44.8231 50.3227 44.8231 49.5835 44.8231 48.8442C44.8231 48.5978 44.7932 48.338 45.0845 48.2131C45.2227 48.0616 45.4092 48.035 45.5941 48.0483C46.4516 48.1132 47.3007 48.2631 48.1582 48.3263C48.2998 48.3363 48.4396 48.4013 48.4563 48.5828H48.4546Z" fill="#297899"/>
<path d="M27.3788 41.493C28.233 41.9459 29.0855 42.3988 29.9597 42.815C30.4492 43.0482 30.8388 43.1014 31.3333 42.825C32.4889 42.179 33.6777 41.5946 34.8532 40.9852C34.8532 41.8027 34.8599 42.6186 34.8532 43.4361C34.8516 43.6859 34.8732 43.924 34.9914 44.1471C34.9098 44.585 34.5136 44.5817 34.2438 44.6916C34.5469 44.6832 34.8216 44.7881 34.9798 45.1111C34.7167 45.7888 34.9115 46.4948 34.8582 47.1858C34.8349 47.4922 34.8499 47.8035 34.8466 48.1116C33.5445 47.7136 32.3274 47.1109 31.0886 46.5631C30.7522 46.4149 30.4991 46.4232 30.1695 46.5731C29.257 46.986 28.3229 47.349 27.3972 47.7303C27.1258 47.4472 27.2839 47.0975 27.259 46.7795C27.2073 46.1018 27.3489 45.4109 27.1357 44.7415L27.1457 44.7332C27.3922 43.914 27.1824 43.0748 27.2573 42.2489C27.2806 41.9942 27.1574 41.7144 27.3772 41.4897L27.3788 41.493Z" fill="#172D47"/>
</g>
<defs>
<clipPath id="clip0_236_2774">
<rect width="60" height="63.793" fill="white"/>
</clipPath>
</defs>
</svg>
