<svg width="51" height="51" viewBox="0 0 51 51" fill="none" xmlns="http://www.w3.org/2000/svg">
<g clip-path="url(#clip0_266_261)">
<path d="M48.3225 11.0999L47.1104 10.7211C46.8073 10.6453 46.5043 10.5696 46.1255 10.5696C44.7619 10.5696 43.5498 11.4786 43.0952 12.7665L42.4134 14.8119V13.2967V13.2211C42.4134 12.9938 42.2619 12.7665 42.1104 12.615L29.6862 0.569576C29.5346 0.418049 29.3074 0.342285 29.1558 0.342285H4.83765C4.38307 0.342285 4.08012 0.645339 4.08012 1.09982V3.44829H1.27707C0.822485 3.44829 0.519531 3.75134 0.519531 4.20582V49.5847C0.519531 50.0392 0.822585 50.3422 1.27707 50.3422H38.0952C38.5498 50.3422 38.8528 50.0391 38.8528 49.5847V47.2362H41.6558C42.1104 47.2362 42.4133 46.9331 42.4133 46.4786V36.2514L44.5345 33.3726L44.6103 33.1453L50.2921 15.0392C50.8983 13.3726 49.9892 11.6301 48.3225 11.0999ZM29.9134 2.91804L39.8376 12.4635H29.9134V2.91804ZM37.3377 48.8271H2.0346V4.96346H4.08001V46.4786C4.08001 46.9332 4.38307 47.2362 4.83755 47.2362H37.3376L37.3377 48.8271ZM40.974 45.7211H40.8983H5.59518V1.85746H28.3982V13.2211C28.3982 13.6757 28.7012 13.9786 29.1557 13.9786H40.9739V19.6605L37.4133 30.8726V31.0999L37.5649 40.7211C37.5649 41.0242 37.7922 41.3272 38.0952 41.4029C38.3983 41.4787 38.777 41.4029 38.9285 41.0998L40.9739 38.3726V45.7211H40.974ZM39.0043 38.3726L38.8528 32.0847L42.6406 33.2968L39.0043 38.3726ZM48.9286 14.5847L43.474 31.9333L39.08 30.4939L44.5346 13.2211C44.8377 12.3878 45.7467 11.8574 46.58 12.1605L47.7921 12.5393C48.7013 12.7665 49.2316 13.7514 48.9286 14.5847Z" fill="#297899"/>
<path d="M9.23117 21.0998H32.2615C32.716 21.0998 33.019 20.7967 33.019 20.3423C33.019 19.8877 32.7159 19.5847 32.2615 19.5847H9.23117C8.77659 19.5847 8.47363 19.8878 8.47363 20.3423C8.47353 20.7967 8.77659 21.0998 9.23117 21.0998Z" fill="#297899"/>
<path d="M35.444 41.7061H24.0046C23.55 41.7061 23.2471 42.0091 23.2471 42.4636C23.2471 42.9181 23.5501 43.2211 24.0046 43.2211H35.3682C35.8228 43.2211 36.1258 42.9181 36.1258 42.4636C36.1258 42.0091 35.8228 41.7061 35.444 41.7061Z" fill="#297899"/>
</g>
<defs>
<clipPath id="clip0_266_261">
<rect width="50" height="50" fill="white" transform="translate(0.5 0.342285)"/>
</clipPath>
</defs>
</svg>
