<svg width="51" height="51" viewBox="0 0 51 51" fill="none" xmlns="http://www.w3.org/2000/svg">
<g clip-path="url(#clip0_266_274)">
<path d="M35.9893 10.4985H28.1768C27.7453 10.4985 27.3955 10.8483 27.3955 11.2798V19.0923C27.3955 19.5237 27.7453 19.8735 28.1768 19.8735H35.9893C36.4207 19.8735 36.7705 19.5237 36.7705 19.0923V11.2798C36.7705 10.8483 36.4207 10.4985 35.9893 10.4985ZM28.958 18.311V13.1652L34.1038 18.311H28.958ZM35.208 17.2056L30.0635 12.061H35.208V17.2056Z" fill="#297899"/>
<path d="M35.9893 21.436H28.1768C27.7453 21.436 27.3955 21.7858 27.3955 22.2173V30.0298C27.3955 30.4612 27.7453 30.811 28.1768 30.811H35.9893C36.4207 30.811 36.7705 30.4612 36.7705 30.0298V22.2173C36.7705 21.7858 36.4207 21.436 35.9893 21.436ZM28.958 29.2485V24.1035L34.103 29.2485H28.958ZM35.208 28.1438L30.0627 22.9985H35.208V28.1438Z" fill="#297899"/>
<path d="M33.6455 32.3735H27.3955V33.936H33.6455V32.3735Z" fill="#297899"/>
<path d="M36.7705 32.3735H35.208V33.936H36.7705V32.3735Z" fill="#297899"/>
<path d="M36.7705 35.4985H27.3955V37.061H36.7705V35.4985Z" fill="#297899"/>
<path d="M36.7705 38.6235H27.3955V40.186H36.7705V38.6235Z" fill="#297899"/>
<path d="M21.9268 18.311H14.1143V19.8735H21.9268V18.311Z" fill="#297899"/>
<path d="M21.9268 24.561H14.1143V26.1235H21.9268V24.561Z" fill="#297899"/>
<path d="M21.9268 30.811H14.1143V32.3735H21.9268V30.811Z" fill="#297899"/>
<path d="M46.1455 5.81104C45.7141 5.81104 45.3643 6.16084 45.3643 6.59229V9.71729H40.6768V1.90479C40.6768 1.0418 39.9772 0.342285 39.1143 0.342285H12.5518C11.6888 0.342285 10.9893 1.0418 10.9893 1.90479V9.71729H6.30176V6.59229C6.30176 6.16084 5.95195 5.81104 5.52051 5.81104C5.47363 5.81104 0.833008 5.88213 0.833008 12.061V42.5298C0.833008 45.5087 3.80176 46.8884 5.36426 47.2017C5.41563 47.2125 5.46797 47.2178 5.52051 47.2173H10.9893V48.7798C10.9893 49.6428 11.6888 50.3423 12.5518 50.3423H39.1143C39.9772 50.3423 40.6768 49.6428 40.6768 48.7798V47.2173H46.1455C46.198 47.2178 46.2504 47.2125 46.3018 47.2017C47.8643 46.8884 50.833 45.5087 50.833 42.5298V12.061C50.833 5.88213 46.1924 5.81104 46.1455 5.81104ZM2.39551 12.061C2.39551 8.87354 3.80176 7.85322 4.73926 7.52979V38.0212C3.88252 38.287 3.08623 38.7184 2.39551 39.2907V12.061ZM10.9893 45.6548H5.60645C5.14004 45.5431 2.39551 44.7884 2.39551 42.5298C2.39551 40.0923 5.54473 39.4165 5.67676 39.3892C6.04053 39.3149 6.30186 38.9948 6.30176 38.6235V11.2798H10.9893V45.6548ZM12.5518 8.93604H21.5479L12.5518 14.5555V8.93604ZM23.4893 9.56563V15.186H14.4916L23.4893 9.56563ZM12.5518 16.7485H23.4893V21.436H12.5518V16.7485ZM12.5518 22.9985H23.4893V27.686H12.5518V22.9985ZM12.5518 29.2485H23.4893V33.936H12.5518V29.2485ZM12.5518 35.4985H21.7496L12.5518 41.8192V35.4985ZM23.4893 36.1989V42.5298H14.2767L23.4893 36.1989ZM39.1143 48.7798H12.5518V44.0923H39.1143V48.7798ZM39.1143 42.5298H25.0518V8.93604H39.1143V42.5298ZM39.1143 7.37354H12.5518V1.90479H39.1143V7.37354ZM46.0611 45.6548H40.6768V11.2798H45.3643V38.6235C45.3642 38.9948 45.6255 39.3149 45.9893 39.3892C46.0252 39.3962 49.2705 40.0735 49.2705 42.5298C49.2705 44.8009 46.5432 45.5415 46.0611 45.6548ZM49.2705 39.2907C48.5798 38.7184 47.7835 38.287 46.9268 38.0212V7.52979C47.8541 7.854 49.2705 8.8751 49.2705 12.061V39.2907Z" fill="#297899"/>
<path d="M26.6143 4.24854H20.3643V5.81104H26.6143V4.24854Z" fill="#297899"/>
<path d="M29.7393 4.24854H28.1768V5.81104H29.7393V4.24854Z" fill="#297899"/>
<path d="M32.8643 4.24854H31.3018V5.81104H32.8643V4.24854Z" fill="#297899"/>
</g>
<defs>
<clipPath id="clip0_266_274">
<rect width="50" height="50" fill="white" transform="translate(0.833008 0.342285)"/>
</clipPath>
</defs>
</svg>
