<svg width="51" height="51" viewBox="0 0 51 51" fill="none" xmlns="http://www.w3.org/2000/svg">
<g clip-path="url(#clip0_266_310)">
<path d="M37.2621 22.6965C38.6614 22.6965 39.7999 21.558 39.7999 20.1587V2.88008C39.7999 1.48076 38.6615 0.342285 37.2621 0.342285H28.6228C27.2234 0.342285 26.0851 1.48076 26.0851 2.88008V8.12022C25.8602 8.10527 25.6303 8.18291 25.4583 8.35488C25.142 8.67119 25.142 9.18408 25.4583 9.5002L26.6675 10.7094H24.2491V2.88008C24.2491 1.48076 23.1107 0.342285 21.7113 0.342285H13.072C11.6727 0.342285 10.5342 1.48076 10.5342 2.88008V20.1587C10.5342 21.558 11.6727 22.6965 13.072 22.6965H16.5817V27.9881H13.072C11.6727 27.9881 10.5342 29.1266 10.5342 30.5259V47.8045C10.5342 49.2038 11.6727 50.3423 13.072 50.3423H21.7113C23.1106 50.3423 24.2491 49.2038 24.2491 47.8045V30.5259C24.2491 29.1266 23.1106 27.9881 21.7113 27.9881H18.2016V22.6965H21.7113C23.1106 22.6965 24.2491 21.558 24.2491 20.1587V12.3293H26.6674L25.4582 13.5385C25.1419 13.8548 25.1419 14.3677 25.4582 14.6838C25.6164 14.8419 25.8237 14.9211 26.031 14.9211C26.049 14.9211 26.0669 14.9197 26.085 14.9185V20.1586C26.085 21.5579 27.2234 22.6964 28.6228 22.6964H32.1325V27.988H28.6228C27.2234 27.988 26.085 29.1265 26.085 30.5258V47.8044C26.085 49.2037 27.2234 50.3422 28.6228 50.3422H37.2621C38.6614 50.3422 39.7999 49.2037 39.7999 47.8044V30.5259C39.7999 29.1266 38.6614 27.9881 37.2621 27.9881H33.7523V22.6965H37.2621ZM21.7113 29.6079C22.2175 29.6079 22.6293 30.0196 22.6293 30.5259V47.8045C22.6293 48.3106 22.2175 48.7225 21.7113 48.7225H13.072C12.5658 48.7225 12.154 48.3106 12.154 47.8045V30.5259C12.154 30.0197 12.5657 29.6079 13.072 29.6079H16.5817V32.89L15.3727 31.6809C15.0563 31.3646 14.5435 31.3646 14.2271 31.6809C13.9108 31.9972 13.9108 32.5101 14.2271 32.8262L16.8189 35.418C16.82 35.419 16.8212 35.4199 16.8222 35.4209C16.8401 35.4386 16.8588 35.4556 16.8783 35.4717C16.8874 35.4791 16.897 35.4856 16.9062 35.4927C16.9182 35.5016 16.9297 35.5107 16.9421 35.519C16.9531 35.5264 16.9646 35.5328 16.9759 35.5396C16.9872 35.5464 16.9983 35.5535 17.01 35.5598C17.0215 35.5659 17.0335 35.5712 17.0454 35.5769C17.0575 35.5826 17.0693 35.5887 17.0818 35.5937C17.0934 35.5984 17.1053 35.6022 17.1171 35.6065C17.1303 35.6113 17.1433 35.6163 17.1566 35.6204C17.1686 35.6239 17.1805 35.6266 17.1925 35.6296C17.2061 35.633 17.2196 35.6368 17.2334 35.6396C17.2474 35.6425 17.2613 35.644 17.2754 35.646C17.2875 35.6478 17.2995 35.65 17.3117 35.6513C17.3383 35.6539 17.3649 35.6553 17.3916 35.6553C17.4183 35.6553 17.4449 35.6539 17.4715 35.6513C17.4838 35.6501 17.4957 35.6479 17.5078 35.646C17.5219 35.6439 17.5359 35.6423 17.5498 35.6396C17.5638 35.6368 17.5771 35.633 17.5907 35.6296C17.6027 35.6266 17.6146 35.624 17.6266 35.6204C17.64 35.6163 17.653 35.6113 17.6662 35.6065C17.6779 35.6023 17.6897 35.5984 17.7013 35.5937C17.7137 35.5885 17.7257 35.5824 17.7378 35.5767C17.7496 35.5711 17.7615 35.5658 17.7731 35.5597C17.7848 35.5534 17.7959 35.5463 17.8072 35.5395C17.8186 35.5326 17.83 35.5263 17.841 35.5189C17.8533 35.5107 17.865 35.5016 17.8769 35.4926C17.8861 35.4855 17.8957 35.4791 17.9048 35.4717C17.9243 35.4557 17.943 35.4388 17.9609 35.4209C17.962 35.4198 17.9632 35.4189 17.9642 35.418L20.556 32.8262C20.8723 32.5099 20.8723 31.997 20.556 31.6809C20.2396 31.3646 19.7268 31.3646 19.4104 31.6809L18.2014 32.89V29.6079H21.7113ZM17.3917 12.4373C16.8855 12.4373 16.4737 12.0255 16.4737 11.5193C16.4737 11.0132 16.8855 10.6014 17.3917 10.6014C17.8979 10.6014 18.3097 11.0131 18.3097 11.5193C18.3097 12.0256 17.8979 12.4373 17.3917 12.4373ZM22.6293 20.1587C22.6293 20.6648 22.2175 21.0767 21.7113 21.0767H18.2016V13.9239C18.9503 13.671 19.5433 13.078 19.7962 12.3293H22.6292V20.1587H22.6293ZM22.6293 10.7095H19.7963C19.4574 9.70625 18.5079 8.98164 17.3918 8.98164C15.9925 8.98164 14.854 10.1201 14.854 11.5194C14.854 12.6356 15.5786 13.5851 16.5818 13.9239V21.0767H13.0721C12.5659 21.0767 12.1541 20.6648 12.1541 20.1587V2.88008C12.1541 2.37393 12.5658 1.96211 13.0721 1.96211H21.7114C22.2176 1.96211 22.6294 2.37393 22.6294 2.88008V10.7095H22.6293ZM28.6229 21.0767C28.1167 21.0767 27.7049 20.6648 27.7049 20.1587V13.5828L29.1956 12.0921C29.5119 11.7758 29.5119 11.2629 29.1956 10.9468L27.7049 9.45605V2.88008C27.7049 2.37393 28.1166 1.96211 28.6229 1.96211H37.2622C37.7684 1.96211 38.1802 2.37393 38.1802 2.88008V20.1587C38.1802 20.6648 37.7685 21.0767 37.2622 21.0767H33.7524V13.9239C34.7557 13.5851 35.4803 12.6355 35.4803 11.5194C35.4803 10.1201 34.3418 8.98164 32.9425 8.98164C31.5432 8.98164 30.4047 10.1201 30.4047 11.5194C30.4047 12.6356 31.1293 13.5851 32.1325 13.9239V21.0767H28.6229ZM37.2621 29.6079C37.7683 29.6079 38.1801 30.0196 38.1801 30.5259V47.8045C38.1801 48.3106 37.7684 48.7225 37.2621 48.7225H28.6228C28.1166 48.7225 27.7048 48.3106 27.7048 47.8045V30.5259C27.7048 30.0197 28.1165 29.6079 28.6228 29.6079H32.1325V32.89L30.9234 31.6809C30.607 31.3646 30.0942 31.3646 29.778 31.6809C29.4617 31.9972 29.4617 32.5101 29.778 32.8262L32.3698 35.418C32.3709 35.419 32.3721 35.4199 32.373 35.4209C32.391 35.4386 32.4097 35.4556 32.4292 35.4717C32.4383 35.4791 32.4479 35.4856 32.4571 35.4927C32.469 35.5016 32.4806 35.5107 32.493 35.519C32.504 35.5264 32.5154 35.5328 32.5268 35.5396C32.5381 35.5464 32.5492 35.5535 32.5608 35.5598C32.5724 35.5659 32.5844 35.5712 32.5963 35.5769C32.6084 35.5826 32.6202 35.5887 32.6327 35.5937C32.6442 35.5984 32.6562 35.6022 32.668 35.6065C32.6812 35.6113 32.6941 35.6163 32.7075 35.6204C32.7194 35.6239 32.7313 35.6266 32.7434 35.6296C32.7569 35.633 32.7705 35.6368 32.7843 35.6396C32.7982 35.6425 32.8122 35.644 32.8263 35.646C32.8384 35.6478 32.8504 35.65 32.8626 35.6513C32.8892 35.6539 32.9158 35.6553 32.9425 35.6553C32.9691 35.6553 32.9958 35.6539 33.0224 35.6513C33.0347 35.6501 33.0466 35.6479 33.0587 35.646C33.0728 35.6439 33.0868 35.6423 33.1007 35.6396C33.1146 35.6368 33.128 35.633 33.1416 35.6296C33.1536 35.6266 33.1655 35.624 33.1774 35.6204C33.1909 35.6163 33.2039 35.6113 33.2171 35.6065C33.2289 35.6023 33.2406 35.5984 33.2521 35.5937C33.2645 35.5885 33.2766 35.5824 33.2887 35.5767C33.3005 35.5711 33.3124 35.5658 33.324 35.5597C33.3356 35.5534 33.3468 35.5463 33.3581 35.5395C33.3694 35.5326 33.3809 35.5263 33.3919 35.5189C33.4042 35.5107 33.4158 35.5016 33.4277 35.4926C33.437 35.4855 33.4466 35.4791 33.4557 35.4717C33.4752 35.4557 33.4938 35.4388 33.5118 35.4209C33.5129 35.4198 33.5141 35.4189 33.515 35.418L36.1068 32.8262C36.4231 32.5099 36.4231 31.997 36.1068 31.6809C35.7904 31.3646 35.2776 31.3646 34.9613 31.6809L33.7522 32.89V29.6079H37.2621ZM32.9425 12.4373C32.4363 12.4373 32.0245 12.0255 32.0245 11.5193C32.0245 11.0132 32.4363 10.6014 32.9425 10.6014C33.4486 10.6014 33.8604 11.0131 33.8604 11.5193C33.8604 12.0256 33.4486 12.4373 32.9425 12.4373Z" fill="#297899"/>
<path d="M32.9421 36.6274C31.5428 36.6274 30.4043 37.7659 30.4043 39.1652C30.4043 40.5646 31.5428 41.703 32.9421 41.703C34.3414 41.703 35.4799 40.5646 35.4799 39.1652C35.4799 37.7659 34.3414 36.6274 32.9421 36.6274ZM32.9421 40.0832C32.4359 40.0832 32.0241 39.6715 32.0241 39.1652C32.0241 38.659 32.4359 38.2473 32.9421 38.2473C33.4482 38.2473 33.8601 38.6591 33.8601 39.1652C33.8601 39.6714 33.4482 40.0832 32.9421 40.0832Z" fill="#297899"/>
<path d="M17.3913 36.6274C15.992 36.6274 14.8535 37.7659 14.8535 39.1652C14.8535 40.5646 15.992 41.703 17.3913 41.703C18.7906 41.703 19.9291 40.5646 19.9291 39.1652C19.9291 37.7659 18.7907 36.6274 17.3913 36.6274ZM17.3913 40.0832C16.8852 40.0832 16.4733 39.6715 16.4733 39.1652C16.4733 38.659 16.8852 38.2473 17.3913 38.2473C17.8975 38.2473 18.3093 38.6591 18.3093 39.1652C18.3093 39.6714 17.8975 40.0832 17.3913 40.0832Z" fill="#297899"/>
</g>
<defs>
<clipPath id="clip0_266_310">
<rect width="50" height="50" fill="white" transform="translate(0.166992 0.342285)"/>
</clipPath>
</defs>
</svg>
