<svg width="55" height="55" viewBox="0 0 55 55" fill="none" xmlns="http://www.w3.org/2000/svg">
<g clip-path="url(#clip0_266_328)">
<path d="M14.1807 4.55629H19.0437C19.4177 4.55629 19.7207 4.25329 19.7207 3.87929C19.7207 3.50529 19.4177 3.20229 19.0437 3.20229H14.1807C13.8067 3.20229 13.5037 3.50529 13.5037 3.87929C13.5037 4.25329 13.8067 4.55629 14.1807 4.55629ZM16.6137 47.5433C16.1788 47.5433 15.7537 47.6722 15.392 47.9137C15.0303 48.1552 14.7483 48.4985 14.5817 48.9002C14.415 49.3019 14.3712 49.744 14.4556 50.1706C14.5401 50.5973 14.7492 50.9893 15.0563 51.2972C15.3635 51.605 15.755 51.8149 16.1815 51.9004C16.6079 51.9859 17.0501 51.943 17.4522 51.7773C17.8543 51.6115 18.1982 51.3303 18.4405 50.9692C18.6829 50.608 18.8127 50.1832 18.8137 49.7483C18.8124 49.1647 18.5804 48.6054 18.1682 48.1923C17.7561 47.7792 17.1973 47.5459 16.6137 47.5433ZM16.6137 50.6003C16.4458 50.5999 16.2817 50.5498 16.1422 50.4562C16.0028 50.3626 15.8941 50.2299 15.83 50.0746C15.766 49.9194 15.7493 49.7487 15.7822 49.584C15.815 49.4193 15.8959 49.268 16.0147 49.1492C16.1334 49.0305 16.2847 48.9496 16.4494 48.9167C16.6141 48.8839 16.7848 48.9005 16.9401 48.9646C17.0953 49.0287 17.2281 49.1373 17.3216 49.2768C17.4152 49.4163 17.4653 49.5803 17.4657 49.7483C17.4647 50.2183 17.0837 50.5993 16.6137 50.6003ZM8.13673 16.2283H16.6807C17.0547 16.2283 17.3567 15.9253 17.3567 15.5523C17.3567 15.1793 17.0537 14.8753 16.6807 14.8753H8.13673C7.76273 14.8753 7.46073 15.1783 7.46073 15.5523C7.46073 15.9263 7.76373 16.2283 8.13673 16.2293V16.2283ZM8.13673 28.4563H16.6807C17.0547 28.4563 17.3567 28.1533 17.3567 27.7793C17.3567 27.4053 17.0537 27.1023 16.6807 27.1023H8.13673C7.76273 27.1023 7.45973 27.4053 7.45973 27.7793C7.45973 28.1533 7.76273 28.4563 8.13673 28.4563ZM20.2957 29.6043H8.13673C7.76273 29.6043 7.45973 29.9073 7.45973 30.2813C7.45973 30.6553 7.76273 30.9583 8.13673 30.9583H20.2957C20.6697 30.9583 20.9727 30.6553 20.9727 30.2813C20.9727 29.9073 20.6697 29.6043 20.2957 29.6043ZM53.0937 27.2193C53.2727 27.2193 53.4447 27.1483 53.5717 27.0213C53.6987 26.8943 53.7697 26.7223 53.7697 26.5433V9.20929C53.7697 9.03029 53.6987 8.85829 53.5717 8.73129C53.4447 8.60429 53.2727 8.53329 53.0937 8.53329H31.6317V3.16029C31.6315 2.78996 31.5583 2.42331 31.4163 2.08127C31.2743 1.73923 31.0664 1.42851 30.8044 1.16683C30.5423 0.905155 30.2313 0.697656 29.889 0.55618C29.5468 0.414704 29.1801 0.342023 28.8097 0.342286H4.40973C3.66303 0.34361 2.94734 0.641026 2.41962 1.1693C1.89191 1.69758 1.59525 2.41359 1.59473 3.16029V51.3423C1.59473 52.0893 1.89115 52.8059 2.41892 53.3346C2.94669 53.8633 3.66268 54.161 4.40973 54.1623H28.8097C29.1802 54.1625 29.5471 54.0898 29.8895 53.9482C30.2319 53.8066 30.543 53.5989 30.8051 53.337C31.0671 53.0751 31.275 52.7642 31.4169 52.4219C31.5587 52.0796 31.6317 51.7128 31.6317 51.3423V41.2803H53.0937C53.2727 41.2803 53.4447 41.2093 53.5717 41.0823C53.6987 40.9553 53.7697 40.7833 53.7697 40.6043V30.3893C53.7697 30.2103 53.6987 30.0383 53.5717 29.9113C53.4447 29.7843 53.2727 29.7133 53.0937 29.7133H31.6317V27.2193H53.0937ZM52.4177 25.8663H22.8307V9.88529H52.4177V25.8663ZM22.1547 29.7133C21.7817 29.7133 21.4787 30.0163 21.4787 30.3893V34.0683H6.10373V22.8873H21.4777V24.6023H8.13773C7.76373 24.6023 7.46073 24.9053 7.46073 25.2793C7.46073 25.6533 7.76373 25.9563 8.13773 25.9563H21.4777V26.5433C21.4777 26.9163 21.7807 27.2193 22.1537 27.2193H27.1217V29.7133H22.1547ZM22.1547 41.2813H27.1227V42.4213H6.10373V37.8493H21.4777V40.6043C21.4777 40.7833 21.5487 40.9563 21.6757 41.0823C21.803 41.2089 21.9752 41.2811 22.1547 41.2813ZM21.4787 12.3753H8.13773C7.76373 12.3753 7.46173 12.6783 7.46173 13.0523C7.46173 13.4263 7.76473 13.7283 8.13773 13.7293H21.4777V19.1733H6.10373V10.7833H21.4777L21.4787 12.3753ZM4.40973 1.69529H28.8097C29.6187 1.69629 30.2737 2.35129 30.2747 3.16029V6.73429H2.94773V3.16029C2.94904 2.77267 3.1034 2.40125 3.37721 2.12688C3.65102 1.85251 4.02211 1.69739 4.40973 1.69529ZM28.8097 52.8093H4.40973C4.02177 52.8072 3.65037 52.6518 3.3765 52.377C3.10264 52.1022 2.94851 51.7303 2.94773 51.3423V46.6593H30.2787V51.3423C30.2779 51.7315 30.1228 52.1044 29.8475 52.3794C29.5721 52.6544 29.1989 52.809 28.8097 52.8093ZM30.2747 45.3093H2.94773V8.08729H30.2787V8.53229H22.1547C21.7817 8.53229 21.4787 8.83529 21.4787 9.20829V9.42829H5.42673C5.24773 9.42829 5.07573 9.49929 4.94873 9.62629C4.82173 9.75329 4.75073 9.92529 4.75073 10.1043V19.8473C4.75073 20.2203 5.05373 20.5233 5.42673 20.5233H21.4777V21.5323H5.42673C5.05373 21.5323 4.75073 21.8353 4.75073 22.2083V34.7423C4.75073 34.9213 4.82173 35.0933 4.94873 35.2203C5.07573 35.3473 5.24773 35.4183 5.42673 35.4183H21.4777V36.4933H5.42673C5.24773 36.4933 5.07573 36.5643 4.94873 36.6913C4.82173 36.8183 4.75073 36.9903 4.75073 37.1693V43.0943C4.75073 43.2733 4.82173 43.4453 4.94873 43.5723C5.07573 43.6993 5.24773 43.7703 5.42673 43.7703H27.7997C27.9787 43.7703 28.1507 43.6993 28.2777 43.5723C28.4047 43.4453 28.4757 43.2733 28.4757 43.0943V41.2803H30.2757L30.2747 45.3093ZM52.4137 39.9303H22.8307V31.0663H52.4177L52.4137 39.9303ZM30.2787 29.7133H28.4787V27.2193H30.2787V29.7133ZM25.9017 14.1283H49.3467C49.7207 14.1283 50.0237 13.8253 50.0237 13.4513C50.0237 13.0773 49.7207 12.7743 49.3467 12.7743H25.9017C25.5277 12.7743 25.2247 13.0773 25.2247 13.4503C25.2255 13.6296 25.2971 13.8013 25.4239 13.9281C25.5507 14.0549 25.7224 14.1265 25.9017 14.1273V14.1283ZM25.9017 17.5873H37.7197C38.0937 17.5873 38.3967 17.2843 38.3967 16.9103C38.3967 16.5363 38.0937 16.2333 37.7197 16.2333H25.9017C25.5277 16.2333 25.2247 16.5363 25.2247 16.9103C25.2247 17.2843 25.5277 17.5873 25.9017 17.5873ZM25.9017 34.2223H49.3467C49.7207 34.2223 50.0237 33.9193 50.0237 33.5463C50.0229 33.367 49.9514 33.1952 49.8246 33.0684C49.6978 32.9417 49.526 32.8701 49.3467 32.8693H25.9017C25.5277 32.8693 25.2247 33.1723 25.2247 33.5463C25.2247 33.9203 25.5277 34.2213 25.9017 34.2223ZM25.9017 37.6813H37.7197C38.0937 37.6813 38.3967 37.3783 38.3967 37.0043C38.3967 36.6303 38.0937 36.3273 37.7197 36.3273H25.9017C25.5277 36.3273 25.2247 36.6303 25.2247 37.0033C25.2255 37.1826 25.2971 37.3543 25.4239 37.4811C25.5507 37.6079 25.7224 37.6805 25.9017 37.6813ZM25.9017 21.0463H42.7167C43.0907 21.0463 43.3937 20.7433 43.3937 20.3693C43.3937 19.9953 43.0907 19.6923 42.7167 19.6923H25.9017C25.5277 19.6923 25.2247 19.9953 25.2247 20.3693C25.2247 20.7433 25.5277 21.0463 25.9017 21.0463ZM15.1547 39.4703H8.13673C7.76273 39.4703 7.45973 39.7733 7.45973 40.1463C7.46052 40.3256 7.5321 40.4973 7.65889 40.6241C7.78568 40.7509 7.95742 40.8225 8.13673 40.8233H15.1537C15.5277 40.8233 15.8307 40.5203 15.8307 40.1463C15.8307 39.7723 15.5277 39.4693 15.1537 39.4693L15.1547 39.4703Z" fill="#297899"/>
</g>
<defs>
<clipPath id="clip0_266_328">
<rect width="53.82" height="53.82" fill="white" transform="translate(0.594727 0.342285)"/>
</clipPath>
</defs>
</svg>
