<svg width="49" height="51" viewBox="0 0 49 51" fill="none" xmlns="http://www.w3.org/2000/svg">
<path d="M48.734 0.812233C48.5889 0.541242 48.3065 0.37221 47.9991 0.372315H36.3346C36.0561 0.372315 35.796 0.511351 35.6414 0.743079L24.6701 17.2025L13.6988 0.743079C13.5442 0.511351 13.2841 0.372315 13.0056 0.372315H1.3411C0.880973 0.37221 0.507812 0.745266 0.507812 1.20539C0.507812 1.37005 0.556553 1.53095 0.647891 1.66791L12.1724 18.9522V22.035C12.1724 22.4951 12.5455 22.8681 13.0056 22.8681H22.1706V23.9446C14.9387 25.3251 10.1952 32.3067 11.5757 39.5386C12.9561 46.7705 19.9378 51.514 27.1696 50.1335C34.4015 48.753 39.145 41.7714 37.7645 34.5395C36.7395 29.1695 32.5397 24.9697 27.1696 23.9446V22.8681H36.3346C36.7947 22.8681 37.1678 22.4951 37.1678 22.035V18.9522L48.6923 1.66791C48.863 1.41223 48.8791 1.08333 48.734 0.812233ZM11.2268 14.5364H16.3383V12.87H10.1186L2.89747 2.03867H12.5598L16.4483 7.87092H10.5061V9.53728H17.5589L23.1137 17.8691H13.4489L11.2268 14.5364ZM36.3346 37.0322C36.3346 43.4743 31.1122 48.6967 24.6701 48.6967C18.228 48.6967 13.0056 43.4743 13.0056 37.0322C13.0056 30.59 18.228 25.3677 24.6701 25.3677C31.1094 25.3746 36.3277 30.593 36.3346 37.0322ZM23.8369 23.7438V22.8681H25.5033V23.7438C25.2267 23.7263 24.9517 23.7013 24.6701 23.7013C24.3885 23.7013 24.1135 23.7263 23.8369 23.7438ZM35.5014 21.2018H13.8388V19.5354H35.5014V21.2018ZM39.2216 12.87H33.0019V14.5364H38.1109L35.8889 17.8691H26.224L31.7788 9.53728H38.8341V7.87092H32.8919L36.7804 2.03867H46.4452L39.2216 12.87Z" fill="#297899"/>
<path d="M13.8389 37.0323C13.8389 43.0143 18.6882 47.8636 24.6702 47.8636C30.6522 47.8636 35.5015 43.0143 35.5015 37.0323C35.5015 31.0502 30.6522 26.2009 24.6702 26.2009C18.6911 26.2078 13.8457 31.0532 13.8389 37.0323ZM33.8352 37.0323C33.8352 42.0939 29.7319 46.1972 24.6702 46.1972C19.6085 46.1972 15.5052 42.0939 15.5052 37.0323C15.5052 31.9706 19.6085 27.8673 24.6702 27.8673C29.7294 27.8732 33.8292 31.9731 33.8352 37.0323Z" fill="#297899"/>
<path d="M6.33989 23.7014H4.67354C4.67354 25.542 3.18142 27.0341 1.34082 27.0341V28.7005C3.18142 28.7005 4.67354 30.1926 4.67354 32.0332H6.33989C6.33989 30.1926 7.83201 28.7005 9.67261 28.7005V27.0341C7.83201 27.0341 6.33989 25.542 6.33989 23.7014ZM5.50671 29.2729L5.49922 29.2629C5.13178 28.7138 4.6602 28.2422 4.11114 27.8748L4.10114 27.8673C4.65833 27.4968 5.13616 27.0189 5.50671 26.4617C5.87727 27.0189 6.3551 27.4968 6.91229 27.8673C6.3551 28.2379 5.87727 28.7157 5.50671 29.2729Z" fill="#297899"/>
<path d="M44.6661 37.0322H42.9997C42.9997 38.8728 41.5076 40.3649 39.667 40.3649V42.0313C41.5076 42.0313 42.9997 43.5234 42.9997 45.364H44.6661C44.6661 43.5234 46.1582 42.0313 47.9988 42.0313V40.3649C46.1582 40.3649 44.6661 38.8728 44.6661 37.0322ZM43.8329 42.6037L43.8254 42.5937C43.458 42.0446 42.9864 41.5731 42.4373 41.2056L42.4273 41.1981C42.9845 40.8276 43.4623 40.3497 43.8329 39.7925C44.2034 40.3497 44.6813 40.8276 45.2385 41.1981C44.6813 41.5687 44.2034 42.0465 43.8329 42.6037Z" fill="#297899"/>
<path d="M23.8373 32.0331H22.1709V33.6995H23.8373V42.8645H25.5036V31.2H23.8373V32.0331Z" fill="#297899"/>
</svg>
