<svg width="50" height="51" viewBox="0 0 50 51" fill="none" xmlns="http://www.w3.org/2000/svg">
<g clip-path="url(#clip0_266_354)">
<path d="M26.2296 33.5688H11.4756V28.6508C11.4755 28.1981 11.1085 27.8312 10.6558 27.8313C10.4384 27.8313 10.2301 27.9177 10.0765 28.0713L0.240446 37.9073C-0.0710275 38.2183 -0.0811709 38.72 0.217495 39.0433L10.0535 49.699C10.2088 49.8669 10.4273 49.9623 10.656 49.9621C11.1086 49.9621 11.4756 49.5951 11.4756 49.1424V44.2244H26.2296C26.6823 44.2244 27.0493 43.8574 27.0493 43.4048V34.3884C27.0493 33.9358 26.6823 33.5688 26.2296 33.5688ZM25.41 42.5851H10.656C10.2033 42.5851 9.83629 42.9521 9.83629 43.4048V47.0457L1.95683 38.5089L9.83629 30.6294V34.3884C9.83629 34.8411 10.2033 35.2081 10.656 35.2081H25.41V42.5851Z" fill="#297899"/>
<path d="M49.0154 11.7654C48.9753 11.7119 48.9286 11.6635 48.8766 11.6213L35.7619 0.965619C35.4104 0.680375 34.8942 0.734268 34.609 1.0858C34.4906 1.2317 34.426 1.41387 34.4259 1.60168V6.51968H22.9505C22.4979 6.51968 22.1309 6.88669 22.1309 7.33935V16.3557C22.1309 16.8083 22.4979 17.1754 22.9505 17.1754H34.4259V22.0934C34.4259 22.546 34.7929 22.913 35.2455 22.913C35.4229 22.913 35.5954 22.8555 35.7373 22.7491L48.852 12.9131C49.2141 12.6413 49.2873 12.1275 49.0154 11.7654ZM36.0653 20.454V16.3557C36.0653 15.903 35.6983 15.536 35.2456 15.536H23.7703V8.15902H35.2456C35.6983 8.15902 36.0653 7.79201 36.0653 7.33935V3.32298L47.0283 12.2319L36.0653 20.454Z" fill="#297899"/>
<path d="M20.4919 6.51978H13.9346V8.15911H20.4919V6.51978Z" fill="#297899"/>
<path d="M12.2956 6.51978H10.6562V8.15911H12.2956V6.51978Z" fill="#297899"/>
<path d="M9.01697 11.4377H3.2793V13.0771H9.01697V11.4377Z" fill="#297899"/>
<path d="M20.4916 15.5361H17.2129V17.1755H20.4916V15.5361Z" fill="#297899"/>
<path d="M13.9346 15.5361H9.0166V17.1755H13.9346V15.5361Z" fill="#297899"/>
<path d="M7.37762 15.5361H5.73828V17.1755H7.37762V15.5361Z" fill="#297899"/>
<path d="M4.09832 15.5361H2.45898V17.1755H4.09832V15.5361Z" fill="#297899"/>
<path d="M14.7546 11.4377H13.1152V13.0771H14.7546V11.4377Z" fill="#297899"/>
<path d="M20.4919 11.4377H16.3936V13.0771H20.4919V11.4377Z" fill="#297899"/>
<path d="M1.63933 11.4377H0V13.0771H1.63933V11.4377Z" fill="#297899"/>
<path d="M36.8851 33.5686H28.6885V35.2079H36.8851V33.5686Z" fill="#297899"/>
<path d="M40.1637 33.5686H38.5244V35.2079H40.1637V33.5686Z" fill="#297899"/>
<path d="M45.9017 38.4868H40.1641V40.1262H45.9017V38.4868Z" fill="#297899"/>
<path d="M30.3278 42.585H28.6885V44.2243H30.3278V42.585Z" fill="#297899"/>
<path d="M42.6231 42.585H37.7051V44.2243H42.6231V42.585Z" fill="#297899"/>
<path d="M45.902 42.585H44.2627V44.2243H45.902V42.585Z" fill="#297899"/>
<path d="M49.9997 42.585H48.3604V44.2243H49.9997V42.585Z" fill="#297899"/>
<path d="M36.8854 38.4868H35.2461V40.1262H36.8854V38.4868Z" fill="#297899"/>
<path d="M33.6065 38.4868H28.6885V40.1262H33.6065V38.4868Z" fill="#297899"/>
<path d="M49.1803 38.4868H47.541V40.1262H49.1803V38.4868Z" fill="#297899"/>
<path d="M33.6071 42.585H31.9678V44.2243H33.6071V42.585Z" fill="#297899"/>
<path d="M49.1807 33.5686H44.2627V35.2079H49.1807V33.5686Z" fill="#297899"/>
<path d="M5.73832 6.51978H0.820312V8.15911H5.73832V6.51978Z" fill="#297899"/>
</g>
<defs>
<clipPath id="clip0_266_354">
<rect width="50" height="50" fill="white" transform="translate(0 0.372314)"/>
</clipPath>
</defs>
</svg>
