<svg width="51" height="51" viewBox="0 0 51 51" fill="none" xmlns="http://www.w3.org/2000/svg">
<g clip-path="url(#clip0_266_414)">
<path d="M47.8301 9.53898H34.8909C32.7137 6.40877 29.143 4.54138 25.3301 4.53898V2.87231C25.3301 1.49159 24.2108 0.372314 22.8301 0.372314H2.83008C1.44935 0.372314 0.330078 1.49159 0.330078 2.87231V12.8723C0.330078 14.253 1.44935 15.3723 2.83008 15.3723H4.66341L7.19091 18.4065C7.48539 18.7601 8.01081 18.8081 8.36456 18.5137C8.40351 18.4813 8.43935 18.4453 8.47174 18.4065L10.9967 15.3723H13.7042C13.6842 15.649 13.6617 15.924 13.6617 16.2056V17.8723C13.6253 18.296 13.9392 18.669 14.3629 18.7055C14.4412 18.7123 14.5201 18.707 14.5967 18.6898C14.844 20.7761 15.5835 22.7737 16.7542 24.5181C15.3312 24.4158 14.1311 23.419 13.7692 22.039H14.4967V20.3723H12.8301C12.3699 20.3723 11.9967 20.7454 11.9967 21.2056C12 23.9658 14.2366 26.2024 16.9967 26.2056H18.0801C18.4542 26.611 18.8533 26.9926 19.2751 27.3481C19.3459 27.4073 19.4217 27.4581 19.4942 27.5148V30.6056L12.5642 32.9156C12.2543 33.0191 12.0334 33.2941 11.9992 33.619L10.3326 49.4523C10.2848 49.91 10.617 50.3199 11.0748 50.3678C11.1042 50.371 11.1338 50.3724 11.1634 50.3723H39.4967C39.957 50.3719 40.3297 49.9984 40.3292 49.5381C40.3292 49.5105 40.3278 49.483 40.3251 49.4556L38.6584 33.6223C38.6242 33.2974 38.4033 33.0224 38.0934 32.919L31.1634 30.6056V27.5148C31.2359 27.4581 31.3109 27.4073 31.3826 27.3481C33.3166 25.7352 34.751 23.6045 35.5176 21.2056H36.3301L38.8576 24.2398C39.1521 24.5935 39.6775 24.6415 40.0312 24.347C40.0702 24.3146 40.106 24.2787 40.1384 24.2398L42.6634 21.2056H47.8301C49.2108 21.2056 50.3301 20.0864 50.3301 18.7056V12.039C50.3301 10.6583 49.2108 9.53898 47.8301 9.53898ZM13.9401 13.7056H10.6076C10.3602 13.7053 10.1254 13.8149 9.96674 14.0048L7.83008 16.5706L5.69341 14.0048C5.53477 13.8149 5.29997 13.7053 5.05258 13.7056H2.83008C2.36987 13.7056 1.99674 13.3325 1.99674 12.8723V2.87231C1.99674 2.41211 2.36987 2.03898 2.83008 2.03898H22.8301C23.2903 2.03898 23.6634 2.41211 23.6634 2.87231V4.67231C18.8606 5.37158 14.9903 8.96721 13.9401 13.7056ZM19.4967 48.7056H12.0884L13.6026 34.3265L19.4967 32.3623V48.7056ZM21.1634 48.7056V37.6398L24.1167 36.6556L22.0259 44.3223C21.972 44.52 21.9927 44.7306 22.0842 44.914L23.9817 48.7056H21.1634ZM21.1634 35.8823V34.2206L23.1576 35.2206L21.1634 35.8823ZM23.7176 44.4515L25.3301 38.539L26.9409 44.4515L25.3301 47.6756L23.7176 44.4515ZM29.4967 48.7056H26.6784L28.5751 44.9115C28.6666 44.7281 28.6874 44.5175 28.6334 44.3198L26.5426 36.6531L29.4967 37.6398V48.7056ZM29.4967 35.8823L27.5026 35.2156L29.4967 34.2206V35.8823ZM29.4967 31.2056V32.3573L25.3301 34.4406L21.1634 32.3573V28.564C23.7889 29.8648 26.8712 29.8648 29.4967 28.564V31.2056ZM37.0576 34.3265L38.5717 48.7056H31.1634V32.3623L37.0576 34.3265ZM30.3142 26.0673C27.4934 28.417 23.4137 28.4747 20.5276 26.2056H24.4967V24.539H18.8426C17.25 22.6112 16.3236 20.2199 16.2017 17.7223C19.5312 15.547 23.2149 13.9695 27.0867 13.0606C27.5857 15.8424 30.0039 17.8684 32.8301 17.8723H34.4567C34.2652 21.0584 32.7662 24.0239 30.3142 26.0673ZM32.8301 16.2056C30.5301 16.2029 28.6661 14.339 28.6634 12.039C28.6638 11.5788 28.291 11.2053 27.8308 11.2049C27.7698 11.2049 27.7089 11.2115 27.6492 11.2248L27.1492 11.3365C22.9436 12.2659 18.94 13.9454 15.3301 16.2948V16.2056C15.3301 10.6828 19.8073 6.20565 25.3301 6.20565C30.8529 6.20565 35.3301 10.6828 35.3301 16.2056H32.8301ZM48.6634 18.7056C48.6634 19.1659 48.2903 19.539 47.8301 19.539H42.2742C42.0268 19.5387 41.7921 19.6483 41.6334 19.8381L39.4967 22.404L37.3601 19.839C37.2016 19.6488 36.9668 19.5389 36.7192 19.539H35.9284C36.0284 18.988 36.0935 18.4314 36.1234 17.8723H36.1634C36.6236 17.8723 36.9967 17.4992 36.9967 17.039V16.2056C36.9949 14.4746 36.6047 12.766 35.8551 11.2056H47.8301C48.2903 11.2056 48.6634 11.5788 48.6634 12.039V18.7056Z" fill="#297899"/>
</g>
<defs>
<clipPath id="clip0_266_414">
<rect width="50" height="50" fill="white" transform="translate(0.330078 0.372314)"/>
</clipPath>
</defs>
</svg>
